<?xml version="1.0" encoding="UTF-8" standalone="no"?>
<!-- Created with Inkscape (http://www.inkscape.org/) -->

<svg
   xmlns:dc="http://purl.org/dc/elements/1.1/"
   xmlns:cc="http://creativecommons.org/ns#"
   xmlns:rdf="http://www.w3.org/1999/02/22-rdf-syntax-ns#"
   xmlns:svg="http://www.w3.org/2000/svg"
   xmlns="http://www.w3.org/2000/svg"
   xmlns:xlink="http://www.w3.org/1999/xlink"
   xmlns:sodipodi="http://sodipodi.sourceforge.net/DTD/sodipodi-0.dtd"
   xmlns:inkscape="http://www.inkscape.org/namespaces/inkscape"
   width="256"
   height="256"
   viewBox="0 0 67.733332 67.733332"
   version="1.1"
   id="svg8"
   inkscape:version="0.92.5 (2060ec1f9f, 2020-04-08)"
   sodipodi:docname="icon.svg">
  <defs
     id="defs2">
    <linearGradient
       inkscape:collect="always"
       id="linearGradient865">
      <stop
         style="stop-color:#ffffff;stop-opacity:1;"
         offset="0"
         id="stop861" />
      <stop
         style="stop-color:#ffffff;stop-opacity:0.5"
         offset="1"
         id="stop863" />
    </linearGradient>
    <linearGradient
       inkscape:collect="always"
       id="linearGradient847">
      <stop
         style="stop-color:#41664f;stop-opacity:1;"
         offset="0"
         id="stop843" />
      <stop
         style="stop-color:#1c2a20;stop-opacity:1"
         offset="1"
         id="stop845" />
    </linearGradient>
    <radialGradient
       inkscape:collect="always"
       xlink:href="#linearGradient847"
       id="radialGradient849"
       cx="33.179367"
       cy="258.88397"
       fx="33.179367"
       fy="258.88397"
       r="33.866665"
       gradientUnits="userSpaceOnUse" />
    <linearGradient
       inkscape:collect="always"
       xlink:href="#linearGradient865"
       id="linearGradient877"
       x1="125.38377"
       y1="111.87035"
       x2="172.26758"
       y2="256"
       gradientUnits="userSpaceOnUse" />
  </defs>
  <sodipodi:namedview
     id="base"
     pagecolor="#ffffff"
     bordercolor="#666666"
     borderopacity="1.0"
     inkscape:pageopacity="0.0"
     inkscape:pageshadow="2"
     inkscape:zoom="2"
     inkscape:cx="82.361583"
     inkscape:cy="179.94763"
     inkscape:document-units="mm"
     inkscape:current-layer="layer1"
     showgrid="false"
     units="px"
     showguides="false"
     inkscape:window-width="1920"
     inkscape:window-height="1020"
     inkscape:window-x="0"
     inkscape:window-y="28"
     inkscape:window-maximized="1"
     inkscape:pagecheckerboard="true" />
  <metadata
     id="metadata5">
    <rdf:RDF>
      <cc:Work
         rdf:about="">
        <dc:format>image/svg+xml</dc:format>
        <dc:type
           rdf:resource="http://purl.org/dc/dcmitype/StillImage" />
        <dc:title />
      </cc:Work>
    </rdf:RDF>
  </metadata>
  <g
     inkscape:label="Layer 1"
     inkscape:groupmode="layer"
     id="layer1"
     transform="translate(0,-229.26667)">
    <rect
       style="opacity:1;fill:url(#radialGradient849);fill-opacity:1;stroke:none;stroke-width:0.02645833;stroke-linecap:butt;stroke-linejoin:round;stroke-miterlimit:4;stroke-dasharray:none;stroke-dashoffset:0;stroke-opacity:1;paint-order:stroke fill markers"
       id="rect22"
       width="67.73333"
       height="67.73333"
       x="1.7801921e-06"
       y="229.26668"
       rx="13.002"
       ry="13.002" />
    <path
       style="opacity:0.98999999;fill:#fffff0;fill-opacity:0;stroke:none;stroke-width:0.021;stroke-linecap:butt;stroke-linejoin:round;stroke-miterlimit:4;stroke-dasharray:none;stroke-dashoffset:0;stroke-opacity:1;paint-order:stroke fill markers"
       d="m 38.291976,258.0755 c -0.145619,0.11201 -0.27986,0.283 -0.403077,0.51263 -0.140015,0.26323 -0.212981,0.52053 -0.218591,0.77256 -0.0056,0.17923 0.04181,0.33318 0.142627,0.46199 0.106415,0.12882 0.241186,0.19327 0.403593,0.19327 0.229629,0 0.448032,-0.15395 0.655259,-0.46199 -0.201626,-0.11201 -0.352907,-0.28567 -0.453721,-0.52089 -0.100812,-0.24083 -0.151411,-0.46776 -0.151411,-0.68058 0,-0.084 0.0085,-0.17618 0.02532,-0.27699 z"
       id="path33"
       inkscape:connector-curvature="0" />
    <path
       style="opacity:0.98999999;fill:#fffff0;fill-opacity:0;stroke:none;stroke-width:0.021;stroke-linecap:butt;stroke-linejoin:round;stroke-miterlimit:4;stroke-dasharray:none;stroke-dashoffset:0;stroke-opacity:1;paint-order:stroke fill markers"
       d="m 31.361134,257.96646 c -0.240829,0 -0.442196,0.081 -0.604615,0.2434 -0.190424,0.19042 -0.291632,0.47595 -0.302824,0.8568 0.224028,-0.14002 0.45095,-0.28012 0.68058,-0.42013 0.296836,-0.20163 0.44545,-0.36943 0.44545,-0.50385 0,-0.11761 -0.07297,-0.17622 -0.218591,-0.17622 z"
       id="path31"
       inkscape:connector-curvature="0" />
    <path
       style="opacity:0.98999999;fill:#fffff0;fill-opacity:0;stroke:none;stroke-width:0.021;stroke-linecap:butt;stroke-linejoin:round;stroke-miterlimit:4;stroke-dasharray:none;stroke-dashoffset:0;stroke-opacity:1;paint-order:stroke fill markers"
       d="m 29.084786,257.96646 c -0.240829,0 -0.442712,0.081 -0.605131,0.2434 -0.190424,0.19042 -0.291113,0.47595 -0.302305,0.8568 0.194582,-0.12162 0.392369,-0.24323 0.591177,-0.36484 0.0044,-0.004 0.0091,-0.009 0.01344,-0.0129 v 0.005 c 0.02558,-0.0156 0.05033,-0.0314 0.07596,-0.047 0.296836,-0.20163 0.444934,-0.36943 0.444934,-0.50385 0,-0.11761 -0.07246,-0.17622 -0.218075,-0.17622 z"
       id="path29"
       inkscape:connector-curvature="0" />
    <path
       style="opacity:0.98999999;fill:#fffff0;fill-opacity:0;stroke:none;stroke-width:0.021;stroke-linecap:butt;stroke-linejoin:round;stroke-miterlimit:4;stroke-dasharray:none;stroke-dashoffset:0;stroke-opacity:1;paint-order:stroke fill markers"
       d="m 38.846463,257.94941 c -0.07841,0 -0.129,0.003 -0.15141,0.008 -0.0168,0.006 -0.02479,0.028 -0.02479,0.0672 0,0.38645 0.04475,0.66397 0.134359,0.83199 0.06161,0.11201 0.159623,0.22121 0.294039,0.32763 0.100811,-0.26884 0.150894,-0.46753 0.150894,-0.59635 0,-0.18482 -0.05008,-0.34196 -0.150894,-0.47077 -0.08401,-0.11201 -0.168172,-0.16795 -0.252182,-0.16795 z"
       id="path27"
       inkscape:connector-curvature="0" />
    <path
       style="opacity:0.98999999;fill:#fffff0;fill-opacity:0;stroke:none;stroke-width:0.021;stroke-linecap:butt;stroke-linejoin:round;stroke-miterlimit:4;stroke-dasharray:none;stroke-dashoffset:0;stroke-opacity:1;paint-order:stroke fill markers"
       d="m 35.469409,257.91582 c -0.565669,0.0672 -1.044556,0.26057 -1.436605,0.57981 -0.392034,0.31364 -0.588077,0.63858 -0.588077,0.97462 0,0.13441 0.0586,0.25747 0.176216,0.36948 0.117615,0.11202 0.246522,0.16795 0.38654,0.16795 0.218427,0 0.465055,-0.1678 0.739489,-0.50384 0.235231,-0.28564 0.397698,-0.55464 0.48731,-0.80667 0.0448,-0.16242 0.123113,-0.42291 0.235127,-0.78135 z"
       id="path25"
       inkscape:connector-curvature="0" />
    <path
       style="opacity:0.98999999;fill:#fffff0;fill-opacity:0;stroke:none;stroke-width:0.021;stroke-linecap:butt;stroke-linejoin:round;stroke-miterlimit:4;stroke-dasharray:none;stroke-dashoffset:0;stroke-opacity:1;paint-order:stroke fill markers"
       d="m 19.070929,259.04547 c -0.0024,-0.005 -0.0075,-0.01 -0.0098,-0.015 v 1.45418 c 0,0.0174 0.0094,0.0318 0.0098,0.0491 z"
       id="path23"
       inkscape:connector-curvature="0" />
    <path
       style="opacity:0.98999999;fill:#fffff0;fill-opacity:0;stroke:none;stroke-width:0.021;stroke-linecap:butt;stroke-linejoin:round;stroke-miterlimit:4;stroke-dasharray:none;stroke-dashoffset:0;stroke-opacity:1;paint-order:stroke fill markers"
       d="m 19.070929,254.89378 c -5.3e-4,0.0173 -0.0098,0.0317 -0.0098,0.0491 v 3.34656 c 0.0046,0.002 0.0064,0.003 0.0098,0.005 z"
       id="path21"
       inkscape:connector-curvature="0" />
    <path
       style="opacity:0.98999999;fill:#fffff0;fill-opacity:0;stroke:none;stroke-width:0.021;stroke-linecap:butt;stroke-linejoin:round;stroke-miterlimit:4;stroke-dasharray:none;stroke-dashoffset:0;stroke-opacity:1;paint-order:stroke fill markers"
       d="m 19.070929,254.89378 v 3.40083 c 0.02289,0.0115 0.02619,0.0109 0.06666,0.0331 0.207225,0.10642 0.428813,0.19006 0.664044,0.25167 0.347241,0.0896 0.744635,0.13169 1.192691,0.12609 l 0.613399,-0.008 0.07545,0.36949 c -0.168018,0.0336 -0.462065,0.0506 -0.882115,0.0506 -0.638479,0 -1.089142,-0.0756 -1.352373,-0.22686 0.375245,0.75049 0.912736,1.12551 1.612821,1.12551 0.856906,0 1.54301,-0.80064 2.058273,-2.40244 h -0.991153 l 0.0925,-0.40359 h 1.03301 l 0.722437,-2.04122 c -0.364043,-0.11201 -0.70017,-0.16795 -1.008206,-0.16795 -0.532066,0 -1.069557,0.18751 -1.612823,0.56276 -0.190423,-0.15682 -0.285771,-0.26335 -0.285771,-0.31936 0,-0.0224 0.07564,-0.0837 0.226862,-0.18449 0.196021,-0.12881 0.414427,-0.23535 0.655256,-0.31936 0.330441,-0.11201 0.672417,-0.16794 1.02526,-0.16794 0.364043,0 0.792332,0.081 1.285193,0.24339 0.49286,0.16242 0.8764,0.24391 1.150834,0.24391 0.302437,0 0.560253,-0.0447 0.773081,-0.13435 0.218411,-0.11762 0.439497,-0.23534 0.663525,-0.35295 l 0.235127,0.32762 c -0.358444,0.24643 -0.641302,0.40572 -0.848527,0.47853 -0.207227,0.0672 -0.501271,0.10128 -0.882118,0.10128 -0.212826,0 -0.52606,-0.0591 -0.940509,-0.17673 l -0.672312,1.90686 h 1.117246 l -0.0925,0.40359 h -1.14205 c -0.313637,0.87931 -0.607682,1.5063 -0.882116,1.88154 -0.448056,0.62168 -1.013772,0.93276 -1.697056,0.93276 -0.59927,0 -1.106387,-0.22692 -1.520835,-0.68058 -0.192535,-0.21178 -0.34172,-0.44675 -0.453202,-0.70176 v 1.48828 c 0.02746,1.0837 0.899493,1.95078 1.990058,1.95078 h 9.005652 c 0.01352,0.13965 0.170502,2.31387 -0.485759,2.51768 -2.938339,0.91262 -4.316225,3.62787 -4.307229,8.48579 0.0031,1.67918 0.16882,3.2042 0.467669,4.30051 0.56778,2.08281 0.98643,3.089 1.507919,3.62459 0.267552,0.27477 0.36758,0.5944 0.509529,1.6278 0.379971,2.76606 1.787385,4.82977 3.618386,5.3051 0.37809,0.0981 0.767678,0.25863 0.865579,0.35657 0.196811,0.19696 0.884569,2.06651 1.131197,3.07475 0.02574,0.10526 0.06139,0.3366 0.0894,0.46405 h 4.529958 c 0.209317,-0.6535 0.494287,-1.12749 0.838189,-1.21387 0.03502,-0.009 0.06829,-0.0151 0.100254,-0.0181 0.02797,-0.003 0.05526,-0.003 0.08217,-5.3e-4 0.188375,0.0181 0.365247,0.17343 0.734838,0.59376 0.123944,0.14097 0.282678,0.41686 0.427881,0.63872 h 3.515548 c -0.360296,-0.88454 -1.247484,-3.50773 -1.486215,-4.46898 -0.554241,-2.23157 -0.568245,-3.16295 -0.08062,-5.33352 0.78309,-3.48553 0.881952,-4.20236 0.876951,-6.35982 -0.0033,-1.4123 -0.07479,-2.27809 -0.248047,-3.0086 -0.348361,-1.46874 -0.62267,-2.72954 -0.714168,-3.28249 -0.485161,-2.9316 -1.374119,-4.33219 -2.913518,-4.59093 -0.90588,-0.15226 -0.930627,-0.17296 -1.021127,-0.83406 -0.05339,-0.39247 -0.08007,-1.12498 -0.08113,-1.87844 h 8.637717 c 1.107998,0 1.999877,-0.89188 1.999877,-1.99987 v -1.05627 c -0.203182,0.18067 -0.422828,0.35827 -0.674894,0.52917 -0.448056,0.30803 -0.801219,0.46198 -1.058849,0.46198 -0.22963,0 -0.414473,-0.073 -0.55449,-0.21859 -0.112014,-0.12321 -0.167947,-0.24945 -0.167947,-0.37827 0,-0.17922 0.03623,-0.38911 0.109037,-0.62994 0.07281,-0.20722 0.143113,-0.41444 0.210323,-0.62166 0.0392,-0.12882 0.05891,-0.22098 0.05891,-0.27699 3e-6,-0.0896 -0.03674,-0.16843 -0.109553,-0.23564 -0.07281,-0.0728 -0.159636,-0.11171 -0.260448,-0.11731 -0.168021,-0.006 -0.358198,0.0754 -0.571026,0.2434 -0.207225,0.16242 -0.372362,0.3643 -0.495575,0.60513 -0.08961,0.16802 -0.19348,0.43651 -0.311092,0.80615 -0.179224,0.53767 -0.271378,0.81252 -0.276987,0.82372 h -0.48731 l 0.428398,-1.28571 c 0.117615,-0.34724 0.176217,-0.5795 0.176217,-0.69711 0,-0.33044 -0.136911,-0.49558 -0.411345,-0.49558 -0.218426,0 -0.448016,0.12573 -0.688845,0.37776 -0.190423,0.19602 -0.319331,0.3782 -0.38654,0.54622 l -0.621668,1.55442 h -0.495578 l 0.697116,-1.74769 c 0.02238,-0.056 0.03359,-0.1764 0.03359,-0.36122 0,-0.0952 -0.03623,-0.17937 -0.109037,-0.25218 -0.07281,-0.0784 -0.165489,-0.11731 -0.277503,-0.11731 -0.145603,0 -0.308086,0.0868 -0.487307,0.26045 -0.231682,0.2372 -0.593802,0.59063 -1.075386,1.05058 v 0.008 c -0.01236,0.0106 -0.02389,0.0176 -0.03617,0.0279 -0.01955,0.0225 -0.04346,0.0486 -0.0894,0.0899 l -0.0088,-0.0139 c -0.348792,0.27258 -0.666451,0.41702 -0.949296,0.41702 -0.190423,0 -0.35556,-0.0224 -0.495578,-0.0672 -0.302421,0.47046 -0.666271,0.70591 -1.091922,0.7059 -0.274433,10e-6 -0.498689,-0.098 -0.672309,-0.29403 -0.14524,-0.16945 -0.223713,-0.37896 -0.243398,-0.62374 -0.196082,0.15831 -0.375396,0.30417 -0.66404,0.53124 -0.347242,0.25763 -0.638104,0.38654 -0.873332,0.38653 -0.240829,10e-6 -0.411818,-0.0394 -0.51263,-0.11782 -0.09521,-0.084 -0.168185,-0.23262 -0.218591,-0.44545 -0.330441,0.37525 -0.660715,0.56328 -0.991155,0.56327 -0.285634,10e-6 -0.521079,-0.09 -0.705901,-0.26923 -0.169214,-0.16921 -0.255653,-0.37704 -0.265099,-0.62115 -0.708626,0.59011 -1.302025,0.89039 -1.776119,0.89038 -0.386448,0 -0.700198,-0.14276 -0.941027,-0.42839 -0.02167,-0.0256 -0.0374,-0.0536 -0.05685,-0.0801 -0.493533,0.33844 -0.919954,0.5085 -1.278991,0.50849 -0.386447,0 -0.699682,-0.14276 -0.940511,-0.42839 -0.02734,-0.0324 -0.04799,-0.0675 -0.07183,-0.10129 -0.02323,0.0172 -0.11472,0.0904 -0.130225,0.10129 -0.425651,0.29683 -0.750072,0.44493 -0.9741,0.44493 -0.184822,0 -0.347292,-0.0613 -0.48731,-0.18448 -0.134416,-0.12322 -0.201536,-0.27768 -0.201538,-0.46251 2e-6,-0.31364 0.19018,-0.69718 0.571026,-1.15083 -0.117615,-0.084 -0.316312,-0.2433 -0.596347,-0.47853 -0.285634,0.39205 -0.62761,0.79797 -1.02526,1.21802 l -0.226343,-0.35295 c 0.403248,-0.42565 0.817684,-0.92425 1.243335,-1.49552 0.08961,0.14562 0.251563,0.31661 0.486793,0.51263 0.218427,0.17922 0.440013,0.35555 0.664041,0.52917 -0.453654,0.53206 -0.680577,0.9156 -0.680577,1.15083 0,0.19043 0.08949,0.28577 0.268716,0.28577 0.128815,0 0.395153,-0.13742 0.798401,-0.41186 0.03607,-0.0247 0.07001,-0.0504 0.105421,-0.0754 -0.03994,-0.12982 -0.06356,-0.26575 -0.06356,-0.41134 0,-0.50406 0.128907,-0.89079 0.38654,-1.15962 0.252031,-0.27443 0.607346,-0.41134 1.066601,-0.41134 0.145619,0 0.277194,0.0501 0.394809,0.15089 0.123214,0.0952 0.185002,0.21027 0.185002,0.34468 0,0.32484 -0.151283,0.61037 -0.453721,0.8568 -0.05846,0.0439 -0.257394,0.16624 -0.520898,0.32453 v 0.045 c -0.234548,0.1861 -0.277405,0.21515 -0.428398,0.33279 0.05446,0.10051 0.141044,0.19131 0.260451,0.27234 0.140015,0.0952 0.263073,0.14262 0.369485,0.14262 0.295035,0 0.65948,-0.15506 1.088824,-0.4563 -0.04646,-0.13867 -0.07183,-0.28534 -0.07183,-0.44235 0,-0.50406 0.128392,-0.89079 0.386025,-1.15962 0.252016,-0.27443 0.607862,-0.41134 1.067117,-0.41134 0.145616,0 0.277194,0.0501 0.394809,0.15089 0.123214,0.0952 0.184999,0.21027 0.184999,0.34468 0,0.32484 -0.151281,0.61037 -0.453718,0.8568 -0.04686,0.0351 -0.167642,0.11147 -0.346231,0.22014 -0.203933,0.19274 -0.397962,0.36039 -0.584978,0.51056 0.05487,0.0891 0.134512,0.17072 0.242361,0.24392 0.140018,0.0952 0.263075,0.14262 0.369488,0.14262 0.468154,0 1.107763,-0.38407 1.914094,-1.14256 0.131643,-0.27875 0.354089,-0.53391 0.673346,-0.7643 0.50406,-0.36404 1.09483,-0.57978 1.772499,-0.64699 l 0.915707,-2.81429 h 0.453721 c -1.019326,3.14198 -1.528591,4.82794 -1.528591,5.05757 0,0.0728 0.02771,0.1426 0.08372,0.2098 0.05601,0.0616 0.126312,0.0925 0.210323,0.0925 0.212582,0 0.743222,-0.37628 1.559594,-1.08985 0.0584,-0.26742 0.161846,-0.51857 0.321945,-0.74983 0.280035,-0.41445 0.635865,-0.62166 1.067118,-0.62166 0.302437,0 0.540546,0.10601 0.714168,0.31884 0.156819,0.19042 0.237787,0.43439 0.243396,0.73122 0.0056,0.20162 -0.05618,0.45359 -0.185002,0.75603 0.100814,0.0168 0.218535,0.0253 0.352951,0.0253 0.191826,0 0.418428,-0.11787 0.675929,-0.33952 l -0.0036,-0.005 0.806154,-0.78962 c 0.252031,-0.24643 0.405979,-0.39238 0.461986,-0.43718 0.196024,-0.16242 0.380868,-0.24873 0.55449,-0.25993 0.224025,-0.0168 0.397682,0.0109 0.520898,0.0837 0.145616,0.084 0.266007,0.24381 0.361217,0.47904 0.22963,-0.20722 0.392097,-0.34198 0.48731,-0.40359 0.17362,-0.10641 0.358463,-0.15916 0.554487,-0.15916 0.431253,0 0.716778,0.18751 0.856795,0.56275 0.431253,-0.37524 0.806792,-0.56275 1.12603,-0.56275 0.235228,0 0.42274,0.0671 0.562755,0.20153 0.145619,0.13442 0.218594,0.31341 0.218594,0.53744 0,0.0896 -0.05912,0.33624 -0.176734,0.73949 -0.123216,0.42565 -0.184486,0.65524 -0.184486,0.68885 0,0.0784 0.02238,0.15086 0.06718,0.21807 0.05041,0.0616 0.114861,0.0925 0.193271,0.0925 0.353396,0 0.938754,-0.38579 1.750279,-1.14773 v -3.92534 c 0,-1.108 -0.891878,-2.0004 -1.999877,-2.0004 0,0 -7.326384,0.002 -7.710125,0 0,0 -2.51e-4,-2.00632 -5.29e-4,-3.44578 h -4.256587 v -1.99988 h 4.256587 c -1.8e-5,-0.24582 1.3e-5,-0.28951 0,-0.52917 h -4.256587 v -2.00039 h 4.256587 c -1.8e-5,-0.24823 1.9e-5,-0.28469 0,-0.52917 h -4.256587 v -1.99988 h 4.256071 c -5.8e-5,-0.97133 -5.8e-5,-2.82075 0,-2.8577 -1.59e-4,-2.73337 -2.232321,-4.9491 -4.985742,-4.94906 -2.753421,-4e-5 -4.985578,2.21569 -4.985742,4.94906 0.0019,0.17288 -0.0011,13.36197 -0.0011,13.36197 h -5.42706 -2.490287 c -1.090565,0 -1.962594,0.86758 -1.990058,1.9513 z m 18.628836,11.78585 c 0.04116,-0.005 0.07277,-0.006 0.09095,5.3e-4 0.07271,0.0243 0.359653,0.68714 0.638204,1.47329 0.278551,0.78615 0.669047,1.85926 0.867648,2.38435 0.198599,0.5251 0.462693,1.46727 0.587045,2.09393 0.19327,0.97395 0.2019,1.282 0.05736,2.12235 -0.214181,1.24516 -0.576152,2.01853 -1.085721,2.31976 -0.547081,0.32342 -1.005083,0.29647 -1.358574,-0.0801 -0.270539,-0.28813 -0.297141,-0.46176 -0.297138,-1.93322 -3e-6,-0.88907 -0.06163,-1.83899 -0.136427,-2.11098 -1.136621,-4.13074 -1.11356,-5.59892 0.0956,-6.10453 0.206039,-0.0862 0.417557,-0.14936 0.541052,-0.16537 z m -4.858618,0.13952 c 1.0478,-0.0113 1.806085,0.48261 1.733743,1.5937 l -0.04031,0.62322 -1.981274,0.007 c -1.848091,0.007 -2.034056,0.0317 -2.755905,0.36897 -0.42568,0.19888 -0.992304,0.58023 -1.259353,0.8475 -0.267052,0.26726 -0.520258,0.48627 -0.562758,0.48627 -0.241959,0 -0.188318,-0.48371 0.110072,-0.99012 1.074988,-1.82446 3.224381,-2.91977 4.755782,-2.93625 z"
       id="path19"
       inkscape:connector-curvature="0" />
    <path
       style="opacity:0.98999999;fill:#fffff0;fill-opacity:0;stroke:none;stroke-width:0.021;stroke-linecap:butt;stroke-linejoin:round;stroke-miterlimit:4;stroke-dasharray:none;stroke-dashoffset:0;stroke-opacity:1;paint-order:stroke fill markers"
       d="m 19.070929,234.02529 v 0.0134 H 48.67222 v -0.0134 z"
       id="rect1094"
       inkscape:connector-curvature="0" />
    <path
       style="display:inline;opacity:1;fill:url(#linearGradient877);fill-opacity:1;stroke:none;stroke-width:0.07951967;stroke-linecap:butt;stroke-linejoin:round;stroke-miterlimit:4;stroke-dasharray:none;stroke-dashoffset:0;stroke-opacity:1;paint-order:stroke fill markers"
       d="M 128.39258 20 C 117.98595 19.999849 109.54945 28.405614 109.54883 38.775391 C 109.55563 39.431252 109.54297 89.46875 109.54297 89.46875 L 89.03125 89.46875 L 79.619141 89.46875 C 75.43142 89.46875 72.060547 92.853126 72.060547 97.056641 L 72.060547 109.75391 C 72.193813 109.82496 72.173786 109.80206 72.349609 109.89844 C 73.132818 110.30217 73.970317 110.61979 74.859375 110.85352 C 76.171786 111.1933 77.673747 111.35327 79.367188 111.33203 L 81.685547 111.30078 L 81.970703 112.70312 C 81.335674 112.8305 80.224309 112.89453 78.636719 112.89453 C 76.22357 112.89453 74.520279 112.60697 73.525391 112.0332 C 74.943639 114.88043 76.975103 116.30469 79.621094 116.30469 C 82.859794 116.30469 85.452944 113.26629 87.400391 107.18945 L 83.654297 107.18945 L 84.003906 105.6582 L 87.908203 105.6582 L 90.638672 97.914062 C 89.262761 97.489055 87.992356 97.277344 86.828125 97.277344 C 84.817163 97.277344 82.785711 97.988475 80.732422 99.412109 C 80.012709 98.817136 79.652344 98.413619 79.652344 98.201172 C 79.652344 98.116133 79.938218 97.884366 80.509766 97.501953 C 81.250636 97.013222 82.076108 96.60779 82.986328 96.289062 C 84.235235 95.86413 85.527748 95.652344 86.861328 95.652344 C 88.237239 95.652344 89.855972 95.960033 91.71875 96.576172 C 93.581532 97.192348 95.031129 97.501953 96.068359 97.501953 C 97.211428 97.501953 98.185845 97.331854 98.990234 96.992188 C 99.815725 96.546014 100.65133 96.098555 101.49805 95.652344 L 102.38672 96.894531 C 101.03197 97.829435 99.962896 98.43473 99.179688 98.710938 C 98.396467 98.966056 97.285121 99.095703 95.845703 99.095703 C 95.041321 99.095703 93.857433 98.87019 92.291016 98.423828 L 89.75 105.6582 L 93.972656 105.6582 L 93.623047 107.18945 L 89.306641 107.18945 C 88.121241 110.52538 87.009883 112.90449 85.972656 114.32812 C 84.279216 116.68659 82.141081 117.86719 79.558594 117.86719 C 77.293632 117.86719 75.376968 117.0062 73.810547 115.28516 C 73.067257 114.46443 72.484247 113.55815 72.060547 112.56641 L 72.060547 118.08203 C 72.060547 122.28555 75.43142 125.66992 79.619141 125.66992 L 113.65625 125.66992 C 113.70735 126.1997 114.30067 134.44753 111.82031 135.2207 C 100.71478 138.68301 95.507015 148.98414 95.541016 167.41406 C 95.552732 173.78453 96.179082 179.56937 97.308594 183.72852 C 99.454534 191.63022 101.03683 195.44859 103.00781 197.48047 C 104.01903 198.5229 104.39709 199.73571 104.93359 203.65625 C 106.3697 214.15003 111.68905 221.97988 118.60938 223.7832 C 120.03837 224.15549 121.51084 224.7632 121.88086 225.13477 C 122.62471 225.88198 125.22411 232.97571 126.15625 236.80078 C 127.16246 240.92973 128.68757 249.93324 129.44336 256 L 142.31055 256 C 142.21015 249.78493 142.51261 242.52658 143.12305 239.86133 C 143.8887 236.51815 145.2353 234.34535 146.7832 233.95508 C 146.91556 233.92106 147.0413 233.89806 147.16211 233.88672 C 147.26782 233.87538 147.3729 233.87543 147.47461 233.88477 C 148.18658 233.95355 148.85312 234.54206 150.25 236.13672 C 152.82537 239.0768 156.77906 247.02131 160.28906 256 L 172.26758 256 C 171.28874 253.82981 170.26319 251.49264 169.82422 250.40234 C 169.30718 249.11821 168.33418 246.83607 167.66211 245.33008 C 166.98999 243.82405 166.4375 242.29286 166.4375 241.92969 C 166.4375 241.56647 166.22777 241.04849 165.97266 240.77734 C 165.39446 240.16325 160.57973 225.81938 159.53711 221.60547 C 157.44234 213.13936 157.38943 209.60578 159.23242 201.37109 C 162.19213 188.1477 162.56578 185.42909 162.54688 177.24414 C 162.5344 171.88617 162.2642 168.60145 161.60938 165.83008 C 160.29274 160.258 159.25598 155.47474 158.91016 153.37695 C 157.07648 142.25509 153.71664 136.94064 147.89844 135.95898 C 144.47464 135.3814 144.38111 135.30302 144.03906 132.79492 C 143.83727 131.30594 143.73643 128.52834 143.73242 125.66992 L 176.37891 125.66992 C 180.56662 125.66992 183.9375 122.28555 183.9375 118.08203 L 183.9375 114.07422 C 183.16957 114.75964 182.33941 115.43373 181.38672 116.08203 C 179.69328 117.2507 178.35849 117.83594 177.38477 117.83594 C 176.51688 117.83594 175.81826 117.55812 175.28906 117.00586 C 174.8657 116.53841 174.6543 116.05901 174.6543 115.57031 C 174.6543 114.89038 174.79123 114.0953 175.06641 113.18164 C 175.34159 112.39546 175.60731 111.60845 175.86133 110.82227 C 176.00949 110.33361 176.08398 109.98393 176.08398 109.77148 C 176.084 109.4317 175.94512 109.13192 175.66992 108.87695 C 175.39473 108.60067 175.06656 108.45288 174.68555 108.43164 C 174.05051 108.40896 173.33173 108.71824 172.52734 109.35547 C 171.74413 109.97168 171.11999 110.73868 170.6543 111.65234 C 170.31561 112.28976 169.92304 113.30854 169.47852 114.71094 C 168.80114 116.75071 168.45284 117.79342 168.43164 117.83594 L 166.58984 117.83594 L 168.20898 112.95703 C 168.65351 111.63968 168.875 110.75871 168.875 110.3125 C 168.875 109.05887 168.35754 108.43164 167.32031 108.43164 C 166.49476 108.43164 165.62702 108.90909 164.7168 109.86523 C 163.99708 110.60893 163.50988 111.30008 163.25586 111.9375 L 160.90625 117.83594 L 159.0332 117.83594 L 161.66797 111.20508 C 161.75255 110.99267 161.79492 110.5352 161.79492 109.83398 C 161.79492 109.47266 161.65799 109.15316 161.38281 108.87695 C 161.10763 108.5795 160.75734 108.43164 160.33398 108.43164 C 159.78368 108.43164 159.16955 108.76104 158.49219 109.41992 C 157.61654 110.31975 156.24789 111.66132 154.42773 113.40625 L 154.42773 113.43555 C 154.38102 113.47561 154.33938 113.50404 154.29297 113.54297 C 154.21908 113.62839 154.12871 113.72634 153.95508 113.88281 L 153.91992 113.83008 C 152.60165 114.86419 151.40105 115.41211 150.33203 115.41211 C 149.61232 115.41211 148.98819 115.32828 148.45898 115.1582 C 147.31598 116.94305 145.94079 117.83594 144.33203 117.83594 C 143.2948 117.83594 142.44722 117.46433 141.79102 116.7207 C 141.24208 116.07788 140.94549 115.28211 140.87109 114.35352 C 140.12999 114.95404 139.45227 115.50767 138.36133 116.36914 C 137.04892 117.34653 135.9496 117.83594 135.06055 117.83594 C 134.15033 117.83594 133.50406 117.68601 133.12305 117.38867 C 132.7632 117.07006 132.48739 116.50664 132.29688 115.69922 C 131.04796 117.12282 129.79969 117.83594 128.55078 117.83594 C 127.47122 117.83594 126.58135 117.49458 125.88281 116.81445 C 125.24326 116.17246 124.91656 115.38309 124.88086 114.45703 C 122.20259 116.69576 119.95982 117.83594 118.16797 117.83594 C 116.70738 117.83594 115.52155 117.2946 114.61133 116.21094 C 114.52943 116.1138 114.47 116.00679 114.39648 115.90625 C 112.53117 117.19027 110.91949 117.83594 109.5625 117.83594 C 108.10191 117.83594 106.91803 117.2946 106.00781 116.21094 C 105.90448 116.0881 105.82643 115.95452 105.73633 115.82617 C 105.64853 115.89156 105.30274 116.16951 105.24414 116.21094 C 103.63538 117.33709 102.40922 117.89844 101.5625 117.89844 C 100.86396 117.89844 100.2499 117.66476 99.720703 117.19727 C 99.21267 116.72985 98.958984 116.14454 98.958984 115.44336 C 98.958996 114.25349 99.677766 112.79921 101.11719 111.07812 C 100.67265 110.75951 99.921681 110.15414 98.863281 109.26172 C 97.78372 110.74908 96.49121 112.28921 94.988281 113.88281 L 94.132812 112.54492 C 95.656903 110.93008 97.223272 109.03839 98.832031 106.87109 C 99.170715 107.42355 99.782817 108.07076 100.67188 108.81445 C 101.49743 109.49435 102.33492 110.16361 103.18164 110.82227 C 101.46704 112.84084 100.60938 114.29703 100.60938 115.18945 C 100.60938 115.91183 100.94761 116.27344 101.625 116.27344 C 102.11186 116.27344 103.11849 115.75208 104.64258 114.71094 C 104.77891 114.61721 104.90718 114.51869 105.04102 114.42383 C 104.89006 113.93132 104.80078 113.41562 104.80078 112.86328 C 104.80078 110.95095 105.28799 109.48471 106.26172 108.46484 C 107.21428 107.42366 108.5572 106.9043 110.29297 106.9043 C 110.84334 106.9043 111.34062 107.09419 111.78516 107.47656 C 112.25084 107.83789 112.48437 108.27323 112.48438 108.7832 C 112.48438 110.01556 111.9126 111.10025 110.76953 112.03516 C 110.54858 112.20146 109.7967 112.66513 108.80078 113.26562 L 108.80078 113.43555 C 107.9143 114.14164 107.75232 114.25289 107.18164 114.69922 C 107.38747 115.08054 107.71472 115.42503 108.16602 115.73242 C 108.69521 116.09374 109.16031 116.27344 109.5625 116.27344 C 110.67759 116.27344 112.05501 115.68582 113.67773 114.54297 C 113.50214 114.0169 113.40625 113.45893 113.40625 112.86328 C 113.40625 110.95095 113.89151 109.48471 114.86523 108.46484 C 115.81774 107.42366 117.16267 106.9043 118.89844 106.9043 C 119.4488 106.9043 119.9461 107.09419 120.39062 107.47656 C 120.85632 107.83789 121.08984 108.27518 121.08984 108.78516 C 121.08984 110.01751 120.51807 111.10025 119.375 112.03516 C 119.19789 112.1682 118.74138 112.45687 118.06641 112.86914 C 117.29564 113.60033 116.5623 114.23691 115.85547 114.80664 C 116.06285 115.14453 116.36386 115.45474 116.77148 115.73242 C 117.30068 116.09374 117.76578 116.27344 118.16797 116.27344 C 119.93737 116.27344 122.35479 114.81703 125.40234 111.93945 C 125.8999 110.88198 126.74063 109.91312 127.94727 109.03906 C 129.85238 107.65795 132.08521 106.83895 134.64648 106.58398 L 138.10742 95.908203 L 139.82227 95.908203 C 135.96969 107.82823 134.04492 114.2246 134.04492 115.0957 C 134.04492 115.37199 134.14964 115.63566 134.36133 115.89062 C 134.57302 116.1242 134.83873 116.24219 135.15625 116.24219 C 135.95971 116.24219 137.96528 114.81458 141.05078 112.10742 C 141.27151 111.09292 141.66248 110.13902 142.26758 109.26172 C 143.32598 107.6894 144.67085 106.9043 146.30078 106.9043 C 147.44385 106.9043 148.34379 107.30586 149 108.11328 C 149.5927 108.8357 149.89872 109.76057 149.91992 110.88672 C 149.94109 111.65162 149.70759 112.60851 149.2207 113.75586 C 149.60174 113.81973 150.04666 113.85156 150.55469 113.85156 C 151.2797 113.85156 152.13615 113.40532 153.10938 112.56445 L 153.09766 112.54492 L 156.14453 109.54883 C 157.09709 108.61392 157.67895 108.06063 157.89062 107.89062 C 158.6315 107.27445 159.33012 106.94678 159.98633 106.9043 C 160.83304 106.84042 161.48938 106.94637 161.95508 107.22266 C 162.50544 107.54127 162.96046 108.14664 163.32031 109.03906 C 164.1882 108.25288 164.80225 107.74154 165.16211 107.50781 C 165.81831 107.10412 166.51693 106.9043 167.25781 106.9043 C 168.88774 106.9043 169.96689 107.61547 170.49609 109.03906 C 172.12602 107.61547 173.54538 106.9043 174.75195 106.9043 C 175.641 106.9043 176.34972 107.16006 176.87891 107.66992 C 177.42928 108.17989 177.70508 108.85713 177.70508 109.70703 C 177.70508 110.04681 177.48163 110.98383 177.03711 112.51367 C 176.57141 114.12851 176.33984 114.99951 176.33984 115.12695 C 176.33984 115.4244 176.42443 115.69812 176.59375 115.95312 C 176.78428 116.1867 177.02787 116.30469 177.32422 116.30469 C 178.65989 116.30469 180.87227 114.84179 183.93945 111.95117 L 183.93945 97.058594 C 183.93945 92.855079 180.56857 89.46875 176.38086 89.46875 C 176.38086 89.46875 148.69059 89.476309 147.24023 89.46875 C 147.24023 89.46875 147.23733 81.857524 147.23633 76.396484 L 131.14844 76.396484 L 131.14844 68.810547 L 147.23633 68.810547 C 147.23626 67.877948 147.23638 67.7119 147.23633 66.802734 L 131.14844 66.802734 L 131.14844 59.212891 L 147.23633 59.212891 C 147.23626 58.271221 147.2364 58.132574 147.23633 57.205078 L 131.14844 57.205078 L 131.14844 49.619141 L 147.23438 49.619141 C 147.23416 45.934101 147.23416 38.917564 147.23438 38.777344 C 147.23387 28.407567 138.79921 20.001802 128.39258 20.001953 L 128.39258 20 z M 134.07812 108.33594 C 131.94017 108.59106 130.1302 109.32401 128.64844 110.53516 C 127.16674 111.72499 126.42578 112.95759 126.42578 114.23242 C 126.42578 114.74239 126.64727 115.20983 127.0918 115.63477 C 127.53633 116.0597 128.02354 116.27148 128.55273 116.27148 C 129.37829 116.27148 130.31043 115.6362 131.34766 114.36133 C 132.23671 113.2777 132.85076 112.25696 133.18945 111.30078 C 133.35881 110.6846 133.65477 109.69577 134.07812 108.33594 z M 146.8418 108.46289 C 146.54544 108.46289 146.35423 108.47524 146.26953 108.49414 C 146.20604 108.51682 146.17578 108.59913 146.17578 108.74805 C 146.17578 110.21416 146.34492 111.26692 146.68359 111.9043 C 146.91645 112.32927 147.28689 112.74471 147.79492 113.14844 C 148.17594 112.12853 148.36523 111.37342 148.36523 110.88477 C 148.36523 110.18355 148.17595 109.58834 147.79492 109.09961 C 147.4774 108.67468 147.15932 108.46289 146.8418 108.46289 z M 109.94727 108.52734 C 109.03705 108.52734 108.27403 108.83507 107.66016 109.45117 C 106.94045 110.17363 106.55988 111.25633 106.51758 112.70117 C 107.25301 112.2398 108.00055 111.77973 108.75195 111.31836 C 108.76858 111.30324 108.78633 111.28465 108.80273 111.26953 L 108.80273 111.28711 C 108.89941 111.22777 108.99294 111.16871 109.08984 111.10938 C 110.21174 110.34447 110.77148 109.70716 110.77148 109.19727 C 110.77148 108.75102 110.49762 108.5293 109.94727 108.5293 L 109.94727 108.52734 z M 118.55078 108.52734 C 117.64056 108.52734 116.8795 108.83507 116.26562 109.45117 C 115.54592 110.17363 115.16339 111.25633 115.12109 112.70117 C 115.96781 112.16996 116.82547 111.63863 117.69336 111.10742 C 118.81526 110.34252 119.37695 109.70716 119.37695 109.19727 C 119.37695 108.75102 119.10116 108.52734 118.55078 108.52734 z M 144.74609 108.94141 C 144.19572 109.36638 143.68835 110.01554 143.22266 110.88672 C 142.69347 111.88535 142.41768 112.86026 142.39648 113.81641 C 142.37532 114.49634 142.55451 115.08162 142.93555 115.57031 C 143.33775 116.05901 143.84712 116.30273 144.46094 116.30273 C 145.32883 116.30273 146.15428 115.71941 146.9375 114.55078 C 146.17545 114.12585 145.60369 113.4666 145.22266 112.57422 C 144.84164 111.66056 144.65039 110.79961 144.65039 109.99219 C 144.65039 109.67357 144.68252 109.32386 144.74609 108.94141 z M 142.50781 141.58398 C 142.66338 141.56509 142.78285 141.56126 142.85156 141.58594 C 143.12637 141.67816 144.21088 144.19332 145.26367 147.17578 C 146.31646 150.15828 147.79235 154.22863 148.54297 156.2207 C 149.29358 158.21278 150.29173 161.78663 150.76172 164.16406 C 151.49219 167.859 151.52481 169.02869 150.97852 172.2168 C 150.16902 176.94068 148.80093 179.87476 146.875 181.01758 C 144.80729 182.2446 143.07626 182.14148 141.74023 180.71289 C 140.71772 179.61981 140.61719 178.96131 140.61719 173.37891 C 140.61718 170.00598 140.38426 166.40294 140.10156 165.37109 C 135.80567 149.69989 135.89284 144.12909 140.46289 142.21094 C 141.24162 141.88401 142.04106 141.64468 142.50781 141.58398 z M 124.14453 142.11328 C 128.10472 142.07057 130.97069 143.94489 130.69727 148.16016 L 130.54492 150.52344 L 123.05664 150.55078 C 116.07173 150.57724 115.36888 150.66962 112.64062 151.94922 C 111.03176 152.70373 108.89018 154.15204 107.88086 155.16602 C 106.87153 156.17999 105.91454 157.00977 105.75391 157.00977 C 104.83942 157.00977 105.04215 155.17512 106.16992 153.25391 C 110.23287 146.33227 118.35656 142.17579 124.14453 142.11328 z M 123.63477 154.56641 C 127.81436 154.59286 131.80598 158.48188 130.88281 161.94922 L 130.4707 163.49414 L 122.14062 163.49414 C 116.16607 163.49414 113.62953 163.67732 113.16602 164.14258 C 112.81059 164.49937 112.15902 164.79483 111.71875 164.79688 C 111.27843 164.7999 109.89767 165.61535 108.65039 166.61133 C 107.40307 167.60738 106.17473 168.42383 105.92188 168.42383 C 105.22107 168.42383 104.75707 166.80853 105.34766 166.42578 C 105.6335 166.24058 106.26147 165.31735 106.74219 164.375 C 109.22793 159.50194 115.88449 155.4537 122.79688 154.61328 C 123.0758 154.57927 123.35613 154.56452 123.63477 154.56641 z M 124.45898 167.49414 C 125.18748 167.51682 125.84229 167.72017 126.86719 168.11328 C 129.58314 169.1553 130.92109 170.95966 130.99219 173.68164 C 131.07311 176.78618 130.60313 176.97401 124.50195 176.26172 C 118.16841 175.52225 114.58554 176.03777 111.92773 178.07422 C 110.94585 178.8265 110.14258 179.59066 110.14258 179.77344 C 110.14258 179.95637 109.67946 180.39746 109.11133 180.75391 C 108.26505 181.28508 108.07812 181.27309 108.07812 180.68359 C 108.07812 177.87616 112.64404 172.0193 116.53125 169.8418 C 117.70468 169.18446 119.99269 168.32721 121.61523 167.9375 C 122.92857 167.62229 123.7305 167.46995 124.45898 167.49414 z M 124.89844 186.67383 L 124.89844 186.67578 C 125.7116 186.66444 126.60271 186.6669 127.58594 186.69336 L 133.12695 186.8418 L 133.26562 198.03516 C 133.40123 208.96075 133.37655 209.27109 132.2207 210.99414 C 131.56937 211.96506 130.25341 213.29058 129.29492 213.93945 C 125.95746 216.19882 120.41077 215.22732 117.61914 211.89453 C 116.34979 210.37686 116.3418 210.32061 116.3418 199.29297 L 116.3418 188.21289 L 119.19141 187.38086 C 120.70883 186.93771 122.45906 186.71336 124.89844 186.67383 z "
       transform="matrix(0.26458333,0,0,0.26458333,0,229.26667)"
       id="rect1094-3" />
  </g>
</svg>
