<?xml version="1.0" encoding="UTF-8" standalone="no"?>
<!-- Created with Inkscape (http://www.inkscape.org/) -->

<svg
   xmlns:dc="http://purl.org/dc/elements/1.1/"
   xmlns:cc="http://creativecommons.org/ns#"
   xmlns:rdf="http://www.w3.org/1999/02/22-rdf-syntax-ns#"
   xmlns:svg="http://www.w3.org/2000/svg"
   xmlns="http://www.w3.org/2000/svg"
   xmlns:xlink="http://www.w3.org/1999/xlink"
   xmlns:sodipodi="http://sodipodi.sourceforge.net/DTD/sodipodi-0.dtd"
   xmlns:inkscape="http://www.inkscape.org/namespaces/inkscape"
   width="210mm"
   height="297mm"
   viewBox="0 0 210 297"
   version="1.1"
   id="svg8"
   sodipodi:docname="statue.svg"
   inkscape:version="0.92.5 (2060ec1f9f, 2020-04-08)">
  <defs
     id="defs2">
    <linearGradient
       inkscape:collect="always"
       id="linearGradient818">
      <stop
         style="stop-color:#41664f;stop-opacity:1;"
         offset="0"
         id="stop814" />
      <stop
         style="stop-color:#41664f;stop-opacity:0.5"
         offset="1"
         id="stop816" />
    </linearGradient>
    <radialGradient
       inkscape:collect="always"
       xlink:href="#linearGradient818"
       id="radialGradient820"
       cx="200.02148"
       cy="230.79099"
       fx="200.02148"
       fy="230.79099"
       r="396.85059"
       gradientTransform="matrix(0.40854869,2.5835093,-1.4959778,0.23656963,463.56117,-477.47269)"
       gradientUnits="userSpaceOnUse" />
  </defs>
  <sodipodi:namedview
     id="base"
     pagecolor="#ffffff"
     bordercolor="#666666"
     borderopacity="1.0"
     inkscape:pageopacity="0.0"
     inkscape:pageshadow="2"
     inkscape:zoom="0.70710678"
     inkscape:cx="118.75871"
     inkscape:cy="607.34151"
     inkscape:document-units="mm"
     inkscape:current-layer="layer1"
     showgrid="false"
     inkscape:window-width="1920"
     inkscape:window-height="1020"
     inkscape:window-x="0"
     inkscape:window-y="28"
     inkscape:window-maximized="1" />
  <metadata
     id="metadata5">
    <rdf:RDF>
      <cc:Work
         rdf:about="">
        <dc:format>image/svg+xml</dc:format>
        <dc:type
           rdf:resource="http://purl.org/dc/dcmitype/StillImage" />
        <dc:title />
      </cc:Work>
    </rdf:RDF>
  </metadata>
  <g
     inkscape:label="Background"
     inkscape:groupmode="layer"
     id="layer1"
     style="display:inline">
    <path
       style="opacity:0.98999999;fill:url(#radialGradient820);fill-opacity:1;stroke:none;stroke-width:0.07937007;stroke-linecap:butt;stroke-linejoin:round;stroke-miterlimit:4;stroke-dasharray:none;stroke-dashoffset:0;stroke-opacity:1;paint-order:stroke fill markers"
       d="M 0 0 L 0 1122.5195 L 793.70117 1122.5195 L 793.70117 0 L 0 0 z M 0.05078125 0.05078125 L 793.65039 0.05078125 L 793.65039 1122.4688 L 544.04297 1122.4688 C 543.97838 1121.7957 543.4334 1120.3068 542.67773 1118.8086 C 539.93444 1113.3699 534.9611 1097.002 533.41992 1088.3379 C 533.19236 1087.0585 532.53081 1083.5691 531.94922 1080.584 C 531.36759 1077.5989 530.63679 1073.4701 530.32422 1071.4102 C 530.01158 1069.3503 529.5225 1066.2097 529.23828 1064.4316 C 528.74456 1061.344 528.28005 1057.2988 527.18164 1046.4883 C 526.90838 1043.7986 526.56253 1040.8915 526.41211 1040.0273 C 526.26165 1039.1633 525.89994 1035.3147 525.60938 1031.4766 C 524.52476 1017.1576 524.13601 1012.3833 523.33789 1003.5645 C 522.8876 998.58893 522.40055 992.8905 522.25391 990.90039 C 521.91371 986.28619 520.66478 977.60292 519.58398 972.33203 L 518.74414 968.23633 L 519.98047 967.42188 C 525.62028 963.70354 528.01187 960.37231 529.21289 954.5625 C 529.91661 951.15938 529.943 920.18981 529.25195 908.9707 C 528.98055 904.56415 528.61936 897.23819 528.45117 892.68945 C 528.28283 888.14068 527.93109 883.1541 527.66992 881.60938 C 527.40902 880.06453 527.20108 877.50632 527.20508 875.92383 C 527.21298 873.2664 526.32498 862.42471 525.12891 850.56055 C 524.85663 847.85977 524.27281 842.0453 523.83008 837.63867 C 523.38734 833.23201 522.8006 828.05119 522.52734 826.12695 C 522.25405 824.20268 522.03125 821.70209 522.03125 820.57031 C 522.03125 819.4385 521.70277 816.478 521.30078 813.99023 C 520.89879 811.50247 520.30803 806.90847 519.98828 803.78125 C 519.6685 800.65399 519.17453 796.46663 518.89258 794.47656 C 517.96406 787.92728 518.00543 787.2608 519.34766 787.07031 C 520.00246 786.97745 520.89896 787.20212 521.33984 787.56836 C 522.5194 788.5498 537.154 788.52949 539.5918 787.54492 C 545.52996 785.14674 547.78207 783.76627 550.77734 780.6875 C 558.5349 772.71364 562.56124 762.64541 569.84375 733.02344 C 572.08811 723.89429 573.65555 718.84253 575.875 713.58203 C 578.168 708.1473 578.50915 707.68192 584.00977 702.48828 C 598.87521 688.45244 607.27438 677.41104 611.93945 665.76953 C 614.08294 660.42052 614.5822 652.8223 613.09961 648.11523 C 612.56292 646.41135 611.38302 644.42244 610.00391 642.90039 C 608.77783 641.54724 607.77247 640.28424 607.77148 640.09375 C 607.76094 638.45529 633.09723 601.41406 634.22852 601.41406 C 634.4822 601.41406 632.17851 599.29911 629.10742 596.71289 C 626.03633 594.12671 623.45545 591.83092 623.37305 591.61133 C 623.29073 591.39166 624.75943 589.17261 626.63672 586.68164 C 628.66855 583.98559 629.86178 581.96372 629.58398 581.68555 C 629.32739 581.42873 624.69066 578.26138 619.28125 574.64648 C 613.87188 571.03148 603.2451 563.91311 595.66602 558.82617 C 588.08689 553.73923 581.70466 549.78313 581.48242 550.03711 C 581.26011 550.29102 579.50285 552.65149 577.57812 555.28125 C 575.65344 557.91101 573.96652 560.0625 573.83008 560.0625 C 573.47522 560.0625 570.81519 558.52534 567.78711 556.57227 C 564.73484 554.60359 563.60825 554.47816 562.78711 556.01367 C 562.45742 556.63015 559.55523 560.87532 556.33594 565.44727 C 553.11669 570.01917 549.99938 574.45762 549.41016 575.31055 C 548.82093 576.1634 546.82693 578.95501 544.97852 581.51367 C 543.13014 584.07234 540.39508 587.91071 538.90039 590.04297 C 535.32534 595.14287 534.53198 595.25727 532.46484 590.97461 C 531.59986 589.18255 530.74757 587.13457 530.57031 586.42383 C 530.39328 585.71309 529.90424 583.87841 529.48438 582.3457 C 528.6248 579.20832 527.87313 574.62476 525.91602 560.58008 C 524.55036 550.77991 524.19792 548.48647 523.33789 543.7793 C 522.87044 541.22067 522.28341 537.96445 522.0332 536.54297 C 521.43415 533.13814 519.30067 525.10727 517.70703 520.25977 C 512.54223 504.54986 504.28475 493.50567 494.26367 488.90625 C 490.12747 487.00791 484.00488 485.64802 479.58008 485.63672 C 477.39525 485.63237 475.45996 485.38824 475.2793 485.0957 C 475.09875 484.80324 474.8738 481.89557 474.7793 478.63281 C 474.62078 473.1531 473.97172 468.79475 472.93359 466.24414 C 472.70217 465.67555 472.35241 464.62871 472.15625 463.91797 C 471.62681 461.99797 468.61332 455.74795 466.66406 452.52734 C 464.9358 449.67187 462.64829 446.59278 454.58398 436.26367 C 448.71536 428.74687 448.7255 428.77047 450.41797 426.21094 C 451.16964 425.07421 452.38598 422.10251 453.12109 419.60742 C 455.44856 411.70772 454.43493 405.81136 447.85156 388.9668 C 445.68491 383.42299 443.73005 378.42217 443.50781 377.85352 C 441.54106 372.81712 440.62859 361.31586 442.10352 360.1543 C 442.97976 359.46419 445.77508 359.02569 452.82031 358.4707 C 456.08715 358.21336 463.0591 357.63762 468.31445 357.19141 C 473.56981 356.7452 480.65945 356.14504 484.06836 355.85742 C 487.47723 355.56965 493.49714 355.11361 497.44531 354.84375 C 501.39352 354.57404 504.72079 354.25577 504.83984 354.13672 C 505.50708 353.46899 500.51528 352.83404 492.33203 352.54688 C 487.21871 352.36739 480.8276 352.00442 478.12891 351.74023 C 475.43017 351.47616 470.78159 351.25143 467.79883 351.23633 C 464.81606 351.22295 460.86403 350.99787 459.01758 350.73633 C 457.17109 350.47486 452.98754 350.2133 449.7207 350.1543 C 443.26028 350.03781 442.23184 349.76193 441.67969 348.00195 C 441.47892 347.36193 440.53287 345.61333 439.57812 344.11523 C 438.62346 342.61715 437.8418 341.18531 437.8418 340.93359 C 437.8418 340.39463 439.51136 339.38702 449.46289 333.91797 C 451.45141 332.82508 455.1699 330.71532 457.72656 329.23047 C 460.28322 327.74561 463.30513 326.0148 464.44141 325.38281 C 471.49189 321.46152 482.26172 314.87267 482.26172 314.48047 C 482.26172 313.89686 480.56689 313.86967 479.91016 314.44336 C 479.6403 314.6791 476.7473 315.98875 473.48047 317.35156 C 470.21363 318.71438 466.33512 320.38083 464.86133 321.05664 C 463.3875 321.73244 462.05661 322.28711 461.9043 322.28711 C 461.75179 322.28711 460.10488 322.98305 458.24414 323.83594 C 456.38344 324.68883 454.73832 325.38672 454.58789 325.38672 C 454.43739 325.38672 453.33817 325.8278 452.14648 326.36523 C 450.95472 326.90268 446.49354 328.79667 442.23242 330.57422 C 437.97134 332.35174 434.264 334.00427 433.99414 334.24805 C 433.03868 335.11088 430.42954 334.67606 428.71484 333.36719 C 427.76006 332.63839 425.93573 331.57942 424.66211 331.01562 C 423.30972 330.41699 422.34766 329.64741 422.34766 329.16406 C 422.34766 328.27518 426.52907 320.16256 432.1543 310.13867 C 440.69463 294.92012 444.15967 288.27295 443.92383 287.56445 C 443.81422 287.23536 442.98359 287.87722 442.07812 288.99023 C 438.29339 293.64262 434.30932 298.55396 431.64453 301.85156 C 430.08215 303.78497 426.4794 308.16417 423.63867 311.58398 C 420.79794 315.0038 417.39331 319.21872 416.07422 320.94922 C 412.22957 325.99277 411.97522 326.15454 409.06445 325.37109 C 407.7062 325.00553 405.31633 324.52791 403.75391 324.31055 C 400.51564 323.86008 396.57725 323.03045 396.2832 322.73633 C 396.17416 322.62724 395.83178 319.16721 395.52148 315.04688 C 395.21103 310.92647 394.74163 305.46102 394.48047 302.90234 C 394.21919 300.34365 393.75007 295.69173 393.4375 292.56445 C 392.45085 282.68696 391.72152 277.07011 391.37305 276.66406 C 391.18759 276.44789 390.74672 278.77485 390.39258 281.83398 C 388.99669 293.89222 388.17392 300.43102 387.74219 302.90234 C 386.89682 307.74096 385.67578 317.38541 385.67578 319.22266 C 385.67578 321.95626 384.68652 322.93541 381.48242 323.36719 C 379.95425 323.57311 377.19218 324.00506 375.3457 324.32812 C 367.80808 325.64737 368.64321 325.81709 366.04883 322.45508 C 364.77078 320.79889 360.81469 315.95391 357.25781 311.68945 C 353.70097 307.42497 348.713 301.32285 346.17188 298.12891 C 343.63071 294.93496 341.37357 292.49936 341.15625 292.7168 C 340.939 292.93426 342.47208 296.59378 344.5625 300.84961 C 357.63033 327.45396 358.03485 328.38859 357.01562 329.51562 C 356.49821 330.08789 355.81918 330.55664 355.50586 330.55664 C 355.19242 330.55664 353.50249 331.49472 351.75 332.64062 L 348.5625 334.72461 L 345.27344 332.97852 C 343.46467 332.01818 338.56317 329.6795 334.38086 327.7832 C 330.19855 325.88691 324.80184 323.40966 322.38672 322.27734 C 319.97156 321.14502 317.87308 320.21875 317.72266 320.21875 C 317.57242 320.21875 315.27233 319.19333 312.61328 317.94141 C 309.95419 316.68945 307.29328 315.51098 306.69922 315.32227 C 304.46858 314.61374 305.76843 315.91892 310.14062 318.77734 C 312.62491 320.40145 316.9815 323.31303 319.82227 325.24805 C 322.66296 327.18308 326.4973 329.79296 328.34375 331.04688 C 341.04568 339.67249 342.23071 340.73594 340.77344 342.21289 C 340.50698 342.48298 339.44169 344.4224 338.40625 346.52344 L 336.52344 350.34375 L 320.94141 349.98633 C 312.37178 349.78915 302.57098 349.43872 299.16211 349.20703 C 295.70127 348.97085 292.74863 348.98184 292.47461 349.23242 C 292.18291 349.49914 292.43239 349.68164 293.08984 349.68164 C 293.69805 349.68164 294.3228 349.88658 294.47852 350.13867 C 294.63419 350.39073 295.63477 350.75489 296.70312 350.94727 C 297.77152 351.13949 302.01569 352.10264 306.13477 353.08789 C 314.554 355.1017 314.61294 355.11612 318.53125 356.19922 C 320.09367 356.63107 322.30119 357.18395 323.4375 357.42773 C 324.57381 357.67174 327.82919 358.49437 330.66992 359.25391 C 333.51065 360.01345 336.37659 360.75942 337.03906 360.91211 C 338.67987 361.29068 338.95212 362.30572 338.02148 364.57031 C 335.89856 369.73635 334.99502 378.16519 335.65625 386.64062 C 336.02237 391.33305 336.44417 392.97885 338.71094 398.58008 C 339.27405 399.97147 339.21842 400.48117 338.29297 402.45703 C 336.06206 407.22014 335.05369 411.93981 334.60938 419.68164 C 334.41507 423.06695 334.05689 425.40104 333.71484 425.51367 C 333.18276 425.68946 325.47255 416.87891 315.56055 404.76953 C 313.21607 401.90525 310.5415 398.6393 309.61914 397.51172 C 307.26533 394.63418 301.07497 385.93202 298.83008 382.3457 C 295.9359 377.72199 292.90026 371.42794 290.35547 364.77344 C 289.08366 361.44764 287.84093 358.26199 287.59375 357.69336 C 287.34646 357.12477 285.91314 353.751 284.4082 350.19727 C 282.90327 346.64353 279.82687 340.13124 277.57227 335.72461 C 273.27131 327.31838 273.50116 328.08323 271.52148 315.56641 C 271.04553 312.55732 268.86157 302.76012 267.89258 299.2832 C 267.57563 298.14599 267.00697 295.81907 266.62891 294.11328 C 265.84114 290.55894 264.71022 286.36525 263.63086 283 C 263.22052 281.72067 262.48136 279.27804 261.98828 277.57227 C 258.5279 265.60147 252.84746 250.40865 247.39844 238.54688 C 246.28835 236.13034 244.95845 233.10552 244.44141 231.82617 C 243.92437 230.54684 242.95137 228.27379 242.2793 226.77344 C 241.60718 225.27311 241.05664 223.74853 241.05664 223.38672 C 241.05664 223.02491 240.84691 222.5084 240.5918 222.23828 C 240.0136 221.62651 235.19887 207.33676 234.15625 203.13867 C 232.06148 194.70439 232.00855 191.1842 233.85156 182.98047 C 236.81127 169.80681 237.18492 167.09754 237.16602 158.94336 C 237.15351 153.60551 236.88336 150.33323 236.22852 147.57227 C 234.91188 142.02114 233.87512 137.25591 233.5293 135.16602 C 231.69562 124.08595 228.33578 118.79238 222.51758 117.81445 C 219.09378 117.239 219.00025 117.16076 218.6582 114.66211 C 218.4564 113.17875 218.35556 110.41021 218.35156 107.5625 L 250.99805 107.5625 C 255.18576 107.5625 258.55664 104.19162 258.55664 100.00391 L 258.55664 96.011719 C 257.78871 96.694565 256.95855 97.365825 256.00586 98.011719 C 254.31242 99.175955 252.97763 99.757813 252.00391 99.757812 C 251.13602 99.757812 250.4374 99.482007 249.9082 98.931641 C 249.48484 98.465946 249.27344 97.988816 249.27344 97.501953 C 249.27344 96.824579 249.41036 96.031315 249.68555 95.121094 C 249.96073 94.33788 250.22645 93.554698 250.48047 92.771484 C 250.62862 92.284622 250.70312 91.936289 250.70312 91.724609 C 250.70313 91.385922 250.56425 91.088 250.28906 90.833984 C 250.01388 90.558801 249.68571 90.411795 249.30469 90.390625 C 248.66965 90.369457 247.95087 90.675509 247.14648 91.310547 C 246.36327 91.924417 245.73913 92.687435 245.27344 93.597656 C 244.93475 94.232694 244.54218 95.247448 244.09766 96.644531 C 243.42028 98.676653 243.07198 99.715483 243.05078 99.757812 L 241.20898 99.757812 L 242.82812 94.898438 C 243.27265 93.586026 243.49414 92.708198 243.49414 92.263672 C 243.49414 91.014764 242.97668 90.390625 241.93945 90.390625 C 241.1139 90.390625 240.24616 90.865802 239.33594 91.818359 C 238.61623 92.559237 238.12902 93.247778 237.875 93.882812 L 235.52539 99.757812 L 233.65234 99.757812 L 236.28711 93.152344 C 236.37176 92.940664 236.41406 92.485651 236.41406 91.787109 C 236.41406 91.427254 236.27714 91.109168 236.00195 90.833984 C 235.72677 90.537633 235.37648 90.390625 234.95312 90.390625 C 234.4028 90.390625 233.7887 90.718794 233.11133 91.375 C 232.23568 92.271492 230.86705 93.60731 229.04688 95.345703 L 229.04688 95.375 C 229.00016 95.415249 228.95656 95.441449 228.91016 95.480469 C 228.83622 95.565527 228.74591 95.664034 228.57227 95.820312 L 228.53906 95.767578 C 227.22079 96.797813 226.02019 97.34375 224.95117 97.34375 C 224.23146 97.34375 223.60732 97.259187 223.07812 97.089844 C 221.9351 98.86795 220.55993 99.757812 218.95117 99.757812 C 217.91394 99.757813 217.06636 99.387362 216.41016 98.646484 C 215.86122 98.006056 215.56463 97.214199 215.49023 96.289062 C 214.74913 96.887388 214.07141 97.438668 212.98047 98.296875 C 211.66806 99.2706 210.56874 99.757813 209.67969 99.757812 C 208.76947 99.757813 208.12321 99.608851 207.74219 99.3125 C 207.38233 98.994981 207.10653 98.433288 206.91602 97.628906 C 205.66711 99.047158 204.41883 99.757812 203.16992 99.757812 C 202.09036 99.757813 201.20049 99.417608 200.50195 98.740234 C 199.8624 98.100682 199.5357 97.315182 199.5 96.392578 C 196.82173 98.622929 194.57896 99.757813 192.78711 99.757812 C 191.32652 99.757812 190.14069 99.218237 189.23047 98.138672 C 189.14862 98.041745 189.08912 97.936148 189.01562 97.835938 C 187.15029 99.115092 185.53863 99.757813 184.18164 99.757812 C 182.72105 99.757812 181.53717 99.218237 180.62695 98.138672 C 180.52361 98.016286 180.44557 97.883486 180.35547 97.755859 C 180.26765 97.820819 179.92188 98.097642 179.86328 98.138672 C 178.25452 99.260572 177.02836 99.820312 176.18164 99.820312 C 175.4831 99.820314 174.86904 99.588741 174.33984 99.123047 C 173.83181 98.657352 173.57812 98.073542 173.57812 97.375 C 173.57813 96.189596 174.29691 94.739993 175.73633 93.025391 C 175.2918 92.707872 174.54082 92.10585 173.48242 91.216797 C 172.40286 92.698552 171.11035 94.232721 169.60742 95.820312 L 168.75195 94.486328 C 170.27604 92.877565 171.84241 90.993114 173.45117 88.833984 C 173.78986 89.384351 174.40196 90.030607 175.29102 90.771484 C 176.11657 91.448858 176.95406 92.115278 177.80078 92.771484 C 176.08618 94.782438 175.22852 96.232041 175.22852 97.121094 C 175.22852 97.840804 175.56677 98.201172 176.24414 98.201172 C 176.731 98.201172 177.73763 97.68176 179.26172 96.644531 C 179.39803 96.551169 179.52632 96.454055 179.66016 96.359375 C 179.50922 95.868711 179.41992 95.354948 179.41992 94.804688 C 179.41992 92.899573 179.90713 91.437936 180.88086 90.421875 C 181.83342 89.384646 183.17634 88.867187 184.91211 88.867188 C 185.46248 88.867188 185.95977 89.056477 186.4043 89.4375 C 186.86999 89.797355 187.10352 90.232204 187.10352 90.740234 C 187.10352 91.967975 186.53174 93.047127 185.38867 93.978516 C 185.1677 94.144247 184.41584 94.606822 183.41992 95.205078 L 183.41992 95.375 C 182.53344 96.0784 182.37146 96.188198 181.80078 96.632812 C 182.00663 97.012686 182.33386 97.355871 182.78516 97.662109 C 183.31435 98.021964 183.77945 98.201172 184.18164 98.201172 C 185.29673 98.201172 186.67416 97.615112 188.29688 96.476562 C 188.12129 95.952469 188.02539 95.398095 188.02539 94.804688 C 188.02539 92.899573 188.51065 91.437936 189.48438 90.421875 C 190.43689 89.384646 191.78181 88.867187 193.51758 88.867188 C 194.06794 88.867187 194.56524 89.056477 195.00977 89.4375 C 195.47546 89.797355 195.70898 90.232204 195.70898 90.740234 C 195.70898 91.967975 195.13721 93.047127 193.99414 93.978516 C 193.81702 94.111355 193.36053 94.399828 192.68555 94.810547 C 191.91478 95.539004 191.18144 96.172666 190.47461 96.740234 C 190.68199 97.076954 190.98299 97.385476 191.39062 97.662109 C 191.91982 98.021964 192.38492 98.201172 192.78711 98.201172 C 194.55651 98.201172 196.97393 96.749539 200.02148 93.882812 C 200.51903 92.829293 201.35977 91.864909 202.56641 90.994141 C 204.47152 89.618225 206.70434 88.802843 209.26562 88.548828 L 212.72656 77.912109 L 214.44141 77.912109 C 210.58884 89.78732 208.66406 96.159458 208.66406 97.027344 C 208.66406 97.302527 208.76879 97.566301 208.98047 97.820312 C 209.19215 98.05316 209.45787 98.169922 209.77539 98.169922 C 210.57885 98.169922 212.58442 96.747744 215.66992 94.050781 C 215.89064 93.040082 216.28162 92.090828 216.88672 91.216797 C 217.94512 89.65037 219.28999 88.867187 220.91992 88.867188 C 222.06299 88.867186 222.96293 89.267884 223.61914 90.072266 C 224.21184 90.791975 224.51786 91.714037 224.53906 92.835938 C 224.56023 93.597979 224.32671 94.550291 223.83984 95.693359 C 224.22087 95.756859 224.6658 95.789063 225.17383 95.789062 C 225.89884 95.789065 226.75529 95.343585 227.72852 94.505859 L 227.71484 94.486328 L 230.76172 91.501953 C 231.71428 90.570564 232.29613 90.018953 232.50781 89.849609 C 233.24869 89.235739 233.94731 88.909517 234.60352 88.867188 C 235.45023 88.803684 236.10657 88.908411 236.57227 89.183594 C 237.12263 89.501113 237.57765 90.105087 237.9375 90.994141 C 238.80539 90.210927 239.41944 89.701597 239.7793 89.46875 C 240.4355 89.066559 241.13412 88.867187 241.875 88.867188 C 243.50493 88.867186 244.58408 89.575889 245.11328 90.994141 C 246.74321 89.575889 248.16257 88.867187 249.36914 88.867188 C 250.25819 88.867186 250.9669 89.120876 251.49609 89.628906 C 252.04646 90.136937 252.32227 90.813439 252.32227 91.660156 C 252.32227 91.998843 252.09882 92.930987 251.6543 94.455078 C 251.1886 96.063841 250.95703 96.931586 250.95703 97.058594 C 250.95703 97.354945 251.04159 97.628801 251.21094 97.882812 C 251.40145 98.11566 251.64506 98.232422 251.94141 98.232422 C 253.27708 98.232422 255.48946 96.77431 258.55664 93.894531 L 258.55664 79.058594 C 258.55664 74.870877 255.18576 71.498047 250.99805 71.498047 C 250.99805 71.498047 223.30778 71.506847 221.85742 71.498047 C 221.85742 71.498047 221.85596 63.915114 221.85547 58.474609 L 205.76758 58.474609 L 205.76758 50.916016 L 221.85547 50.916016 C 221.8554 49.986918 221.85552 49.821796 221.85547 48.916016 L 205.76758 48.916016 L 205.76758 41.355469 L 221.85547 41.355469 C 221.8554 40.417292 221.85554 40.279489 221.85547 39.355469 L 205.76758 39.355469 L 205.76758 31.796875 L 221.85352 31.796875 C 221.8533 28.125676 221.8533 21.135773 221.85352 20.996094 C 221.8529 10.665265 213.4164 2.2908473 203.00977 2.2910156 C 192.60314 2.2908473 184.16664 10.665265 184.16602 20.996094 C 184.17302 21.649507 184.16211 71.498047 184.16211 71.498047 L 163.65039 71.498047 L 154.23828 71.498047 C 150.05056 71.498047 146.67969 74.870877 146.67969 79.058594 L 146.67969 91.707031 C 146.81295 91.777612 146.79294 91.755153 146.96875 91.851562 C 147.75196 92.253753 148.58946 92.569887 149.47852 92.802734 C 150.79093 93.141421 152.29289 93.300467 153.98633 93.279297 L 156.30469 93.248047 L 156.58984 94.644531 C 155.95481 94.771538 154.84345 94.835937 153.25586 94.835938 C 150.84271 94.835936 149.13942 94.55005 148.14453 93.978516 C 149.56278 96.815019 151.59424 98.232422 154.24023 98.232422 C 157.47893 98.232422 160.07208 95.206373 162.01953 89.152344 L 158.27344 89.152344 L 158.62305 87.626953 L 162.52734 87.626953 L 165.25781 79.912109 C 163.8819 79.488751 162.6115 79.277344 161.44727 79.277344 C 159.43631 79.277344 157.40485 79.986045 155.35156 81.404297 C 154.63185 80.811595 154.27148 80.408945 154.27148 80.197266 C 154.27148 80.112594 154.55737 79.881023 155.12891 79.5 C 155.86978 79.013138 156.69525 78.610488 157.60547 78.292969 C 158.85438 77.86961 160.14689 77.658203 161.48047 77.658203 C 162.85638 77.658203 164.47511 77.964255 166.33789 78.578125 C 168.20067 79.191995 169.65027 79.5 170.6875 79.5 C 171.83057 79.5 172.80499 79.33087 173.60938 78.992188 C 174.43488 78.547661 175.27047 78.10273 176.11719 77.658203 L 177.00586 78.896484 C 175.65111 79.827873 174.58204 80.429895 173.79883 80.705078 C 173.01561 80.959093 171.90426 81.087891 170.46484 81.087891 C 169.66046 81.087891 168.47658 80.864448 166.91016 80.419922 L 164.36914 87.626953 L 168.5918 87.626953 L 168.24219 89.152344 L 163.92578 89.152344 C 162.74038 92.475709 161.62903 94.84542 160.5918 96.263672 C 158.89836 98.613313 156.76022 99.789062 154.17773 99.789062 C 151.91277 99.789062 149.99611 98.9314 148.42969 97.216797 C 147.6864 96.399175 147.10339 95.495883 146.67969 94.507812 L 146.67969 100.00391 C 146.67969 104.19162 150.05056 107.5625 154.23828 107.5625 L 188.27539 107.5625 C 188.32644 108.0903 188.91981 116.30781 186.43945 117.07812 C 175.33392 120.52741 170.12616 130.78976 170.16016 149.15039 C 170.17206 155.49691 170.79822 161.26077 171.92773 165.4043 C 174.07367 173.27632 175.65597 177.07926 177.62695 179.10352 C 178.63817 180.14204 179.01623 181.35007 179.55273 185.25586 C 180.98884 195.71025 186.3082 203.5101 193.22852 205.30664 C 194.65752 205.6776 196.12998 206.28413 196.5 206.6543 C 197.24385 207.39872 199.84325 214.46472 200.77539 218.27539 C 201.92837 222.98883 203.76226 234.08342 204.33984 239.83984 C 204.59655 242.39852 205.19306 247.39949 205.66406 250.95312 C 206.13503 254.50684 206.72686 259.39011 206.98047 261.80664 C 207.234 264.22317 207.7993 269.10839 208.23633 272.66211 C 208.67335 276.21582 209.25812 281.79894 209.53516 285.06836 C 209.99025 290.43847 210.51788 295.35907 212.17188 309.62109 C 212.46853 312.17977 212.91575 316.07652 213.16406 318.2793 C 213.41234 320.48208 213.75986 322.74236 213.9375 323.30273 C 214.11525 323.86312 214.46338 325.89842 214.71094 327.82617 C 215.43226 333.44549 215.74186 335.26142 216.58594 338.82617 C 217.02349 340.67408 217.6122 343.23236 217.89453 344.51172 C 220.76795 357.5348 224.11348 365.73847 231.91016 378.88281 C 234.18214 382.7131 241.57617 398.32571 241.57617 399.29297 C 241.57617 399.88371 240.64008 405.18721 239.49609 411.07812 C 236.40319 427.0049 235.49468 432.35658 234.3457 441.43164 C 234.02176 443.99034 233.53668 447.47977 233.26758 449.18555 C 232.27816 455.46213 231.71315 473.84406 232.22656 483.07812 C 232.80971 493.56733 235.3667 507.75232 237.01367 509.63672 C 237.24974 509.9068 237.44336 510.49652 237.44336 510.94727 C 237.44336 512.07168 242.38996 522.05506 244.36133 524.91016 C 253.30316 537.86052 264.91701 546.62582 281.68945 553.08008 C 284.34476 554.10187 285.47427 554.81545 285.68555 555.60352 C 285.84769 556.2076 285.98428 559.72603 285.98828 563.42188 C 285.9924 567.11768 286.22176 572.58325 286.49805 575.56836 C 286.77433 578.55347 287.24729 584.60119 287.55078 589.00781 C 288.32695 600.27568 288.89742 606.37215 289.86914 613.82031 C 290.33281 617.37401 290.92722 622.02598 291.19141 624.1582 C 291.45556 626.29046 291.89546 629.082 292.16797 630.36133 C 293.20322 635.21961 292.8999 636.80654 289.71289 643.20898 C 282.9735 656.74789 278.85496 669.19197 276.88477 681.9707 C 275.81867 688.88433 275.68437 703.61256 276.64062 708.67188 C 278.69846 719.55846 281.56114 727.66757 285.85352 734.77539 C 286.89663 736.50294 286.90608 736.65778 286.08203 738.19336 C 282.45006 744.96132 280.98458 748.01317 279.41211 752.07812 C 276.1432 760.52866 274.70183 766.0107 272.85156 777.0332 C 271.60375 784.4667 271.74845 802.47396 273.12695 811.33008 C 274.89638 822.69776 274.98992 823.17825 276.70117 829.62695 C 279.12226 838.75062 279.08939 838.51305 278.60156 843.29688 C 278.06653 848.54365 278.48019 867.99887 279.26758 874.59766 C 280.23196 882.67938 282.07495 894.65854 282.88672 898.11719 C 283.12022 899.11226 283.71516 901.78614 284.20703 904.06055 C 284.69886 906.33492 285.51987 909.92268 286.0332 912.0332 C 286.78064 915.10649 286.86403 916.39449 286.44727 918.49609 C 285.43862 923.58205 285.02191 926.35635 284.23438 933.26562 C 283.0055 944.04499 282.42125 950.16036 282.13477 955.23438 C 281.99024 957.79296 281.61278 962.79396 281.29492 966.34766 C 280.94464 970.26491 280.66202 988.99052 280.57812 1013.9043 C 280.44116 1054.684 280.43191 1055.0185 279.32031 1057.8398 C 277.20778 1063.2013 270.63654 1076.606 264.87695 1087.3047 C 257.75926 1100.5262 249.86417 1117.2056 248.13281 1122.4688 L 0.05078125 1122.4688 L 0.05078125 0.05078125 z M 208.69531 90.294922 C 206.55735 90.548937 204.74738 91.279756 203.26562 92.486328 C 201.78391 93.671732 201.04297 94.899846 201.04297 96.169922 C 201.04297 96.677952 201.26446 97.143048 201.70898 97.566406 C 202.15351 97.989765 202.64072 98.201172 203.16992 98.201172 C 203.99547 98.201172 204.92761 97.566951 205.96484 96.296875 C 206.8539 95.21731 207.46795 94.200604 207.80664 93.248047 C 207.97598 92.634177 208.27195 91.64967 208.69531 90.294922 z M 221.45898 90.421875 C 221.16263 90.421875 220.97142 90.431955 220.88672 90.453125 C 220.82322 90.474293 220.79297 90.558856 220.79297 90.707031 C 220.79297 92.167619 220.96209 93.216528 221.30078 93.851562 C 221.53363 94.274921 221.90408 94.687653 222.41211 95.089844 C 222.79313 94.073783 222.98242 93.322796 222.98242 92.835938 C 222.98242 92.137396 222.79313 91.543503 222.41211 91.056641 C 222.09459 90.633282 221.7765 90.421875 221.45898 90.421875 z M 184.56445 90.486328 C 183.65423 90.486328 182.89121 90.79238 182.27734 91.40625 C 181.55763 92.12596 181.17707 93.205112 181.13477 94.644531 C 181.8702 94.184885 182.61774 93.725271 183.36914 93.265625 C 183.38574 93.249155 183.40342 93.233287 183.41992 93.216797 L 183.41992 93.234375 C 183.5166 93.175261 183.61013 93.115751 183.70703 93.056641 C 184.82893 92.294595 185.38867 91.660374 185.38867 91.152344 C 185.38867 90.707817 185.11482 90.486328 184.56445 90.486328 z M 193.16797 90.486328 C 192.25775 90.486328 191.49668 90.79238 190.88281 91.40625 C 190.1631 92.12596 189.78058 93.205112 189.73828 94.644531 C 190.585 94.115333 191.44266 93.585839 192.31055 93.056641 C 193.43245 92.294595 193.99414 91.660374 193.99414 91.152344 C 193.99414 90.707817 193.71834 90.486328 193.16797 90.486328 z M 219.36328 90.898438 C 218.81291 91.321792 218.30554 91.968052 217.83984 92.835938 C 217.31065 93.830826 217.03487 94.803302 217.01367 95.755859 C 216.9925 96.433233 217.17171 97.015091 217.55273 97.501953 C 217.95493 97.988816 218.46429 98.232422 219.07812 98.232422 C 219.94601 98.232422 220.77147 97.650565 221.55469 96.486328 C 220.79264 96.062969 220.22087 95.406631 219.83984 94.517578 C 219.45882 93.607357 219.26758 92.749694 219.26758 91.945312 C 219.26758 91.627797 219.29978 91.279456 219.36328 90.898438 z M 217.125 123.41797 C 217.28058 123.39787 217.40005 123.39702 217.46875 123.41992 C 217.74356 123.51158 218.82807 126.017 219.88086 128.98828 C 220.93365 131.95955 222.40954 136.0154 223.16016 138 C 223.91077 139.98462 224.90892 143.54559 225.37891 145.91406 C 226.10938 149.59513 226.142 150.75942 225.5957 153.93555 C 224.7862 158.64167 223.41812 161.56461 221.49219 162.70312 C 219.42448 163.92551 217.69345 163.82364 216.35742 162.40039 C 215.33491 161.31138 215.23438 160.65516 215.23438 155.09375 C 215.23437 151.73348 215.00146 148.14324 214.71875 147.11523 C 210.42286 131.50298 210.51002 125.95395 215.08008 124.04297 C 215.85881 123.71733 216.65825 123.47847 217.125 123.41797 z M 198.76172 123.94531 C 202.72191 123.9027 205.58787 125.76932 205.31445 129.96875 L 205.16211 132.32422 L 197.67383 132.34961 C 190.68892 132.37514 189.98606 132.46952 187.25781 133.74414 C 185.64894 134.49581 183.50737 135.93712 182.49805 136.94727 C 181.48872 137.9574 180.53172 138.78516 180.37109 138.78516 C 179.4566 138.78516 179.65934 136.95696 180.78711 135.04297 C 184.85006 128.14737 192.97375 124.00761 198.76172 123.94531 z M 198.25195 136.35156 C 202.43154 136.37716 206.42317 140.25271 205.5 143.70703 L 205.08789 145.24609 L 196.75781 145.24609 C 190.78325 145.24609 188.24672 145.42911 187.7832 145.89258 C 187.42778 146.24795 186.77621 146.54097 186.33594 146.54297 C 185.89562 146.54572 184.51486 147.35929 183.26758 148.35156 C 182.02026 149.34384 180.79191 150.15625 180.53906 150.15625 C 179.83826 150.15625 179.37425 148.54731 179.96484 148.16602 C 180.25069 147.9815 180.87866 147.06188 181.35938 146.12305 C 183.84513 141.26832 190.50168 137.23568 197.41406 136.39844 C 197.69298 136.36464 197.97331 136.34956 198.25195 136.35156 z M 199.07617 149.23047 C 199.80466 149.25459 200.45948 149.45594 201.48438 149.84766 C 204.20034 150.88576 205.53828 152.6828 205.60938 155.39453 C 205.69033 158.48739 205.22032 158.67447 199.11914 157.96484 C 192.7856 157.22818 189.20272 157.74268 186.54492 159.77148 C 185.56304 160.52096 184.75977 161.28275 184.75977 161.46484 C 184.75977 161.64699 184.29665 162.08632 183.72852 162.44141 C 182.88224 162.9706 182.69531 162.9583 182.69531 162.37109 C 182.69531 159.57424 187.26123 153.73961 191.14844 151.57031 C 192.32187 150.91543 194.60987 150.06012 196.23242 149.67188 C 197.54575 149.35758 198.34768 149.20637 199.07617 149.23047 z M 199.51562 168.33984 C 200.32878 168.32664 201.21988 168.33338 202.20312 168.35938 L 207.74414 168.50586 L 207.88281 179.6582 C 208.01842 190.54275 207.99375 190.85182 206.83789 192.56836 C 206.18656 193.53564 204.8706 194.85552 203.91211 195.50195 C 200.57464 197.75284 195.02796 196.78511 192.23633 193.46484 C 190.96698 191.95289 190.95898 191.89637 190.95898 180.91016 L 190.95898 169.87305 L 193.80859 169.04297 C 195.32601 168.60151 197.07623 168.37924 199.51562 168.33984 z M 222.0918 215.37109 C 222.80377 215.43936 223.47226 216.02658 224.86914 217.61523 C 228.25624 221.4675 234.03072 233.93234 238.03906 246.04102 C 238.60376 247.7468 239.268 249.60913 239.51367 250.17773 C 239.75938 250.74632 240.92442 254.35143 242.10352 258.18945 C 243.28261 262.02746 244.45262 265.74824 244.70312 266.45898 C 245.11071 267.61456 249.29976 281.91663 250.38086 285.84375 C 250.61564 286.69663 251.41791 289.60387 252.16406 292.30469 C 252.91018 295.0055 254.6586 301.63547 256.04883 307.03711 C 259.0746 318.79388 260.58278 324.25003 261.19336 325.64453 C 261.44232 326.21312 261.92517 327.60891 262.26562 328.74609 C 262.76611 330.4179 266.99972 341.26867 268.92188 345.80469 C 269.16274 346.37328 269.70702 347.6534 270.13086 348.64844 C 271.28278 351.35258 274.39629 359.34956 275.62891 362.77344 C 280.9131 377.45126 280.08371 391.78691 272.98633 408.47852 C 271.82023 411.22098 271.13461 412.22656 270.42969 412.22656 C 269.89991 412.22656 269.4668 411.95042 269.4668 411.61328 C 269.4668 411.27622 269.03908 410.52052 268.51758 409.93359 C 267.27332 408.53328 261.76382 398.96853 258.07617 391.80859 C 249.9633 376.05644 249.57855 375.43958 238.36133 360.12891 C 236.67014 357.82056 233.31055 351.04368 233.31055 349.93945 C 233.31055 349.50568 233.09792 348.7456 232.83789 348.25195 C 232.34988 347.32495 231.23185 342.76165 230.27344 337.79297 C 229.41904 333.3635 228.24753 323.74341 227.63086 316.08203 C 226.94495 307.56086 225.33446 296.96398 222.44531 281.9668 C 222.19885 280.68746 221.63393 277.19801 221.18945 274.21289 C 220.74494 271.22777 220.15116 267.62264 219.87109 266.20117 C 219.59092 264.77967 219.02454 260.47668 218.61133 256.63867 C 218.19811 252.80066 217.59501 247.21755 217.27148 244.23242 C 216.60856 238.11544 216.87603 225.09377 217.74219 221.32617 C 218.50784 217.99552 219.85444 215.83021 221.40234 215.44141 C 221.53468 215.40811 221.66044 215.38445 221.78125 215.37305 C 221.88696 215.36305 221.99009 215.36109 222.0918 215.37109 z M 484.96289 312.72461 C 484.75842 312.73611 484.46215 312.77972 484.07617 312.85352 C 483.36932 312.98875 482.91812 313.30605 483.07422 313.55859 C 483.23481 313.81859 483.79214 313.78427 484.35938 313.48047 C 485.37231 312.938 485.57629 312.69011 484.96289 312.72461 z M 394.69727 334.23242 C 395.06413 334.23612 395.43281 334.24928 395.7832 334.27148 C 398.32562 334.43257 398.33313 334.43702 398.49414 336.38672 C 398.7332 339.28322 397.27509 343.73515 395.67578 344.99414 L 395.67578 344.99609 C 394.16801 346.18305 391.95206 346.41287 391.64062 345.41602 C 391.52962 345.06063 391.29199 342.51044 391.11133 339.74805 C 390.78614 334.77251 390.79495 334.72298 392.00977 334.41797 C 392.51558 334.29102 393.59666 334.22152 394.69727 334.23242 z M 384.26172 334.5625 C 385.61172 334.62702 385.50806 335.35646 385.76953 337.5332 C 385.97442 339.23901 386.277 341.72915 386.44141 343.06641 L 386.74023 345.49805 L 384.78906 345.98828 C 383.71571 346.25731 381.88797 346.61262 380.72656 346.7793 C 378.19817 347.14183 377.96454 346.80055 376.62891 340.76172 C 375.55312 335.8978 375.78215 335.48947 379.86914 334.99609 C 382.11789 334.72461 383.45172 334.5238 384.26172 334.5625 z M 408 335.38477 C 408.18693 335.37067 408.38912 335.37222 408.60938 335.38672 C 408.86101 335.40328 409.13724 335.43818 409.4375 335.48828 C 412.46097 335.99325 412.65345 336.82971 410.6582 340.7793 C 409.69291 342.69006 408.20553 344.89395 407.35352 345.67578 C 406.5015 346.45758 405.56963 347.0957 405.28125 347.0957 C 404.32771 347.0957 404.11292 345.47666 404.74414 343.03906 C 405.08641 341.71718 405.55057 339.62222 405.77734 338.38477 C 406.15506 336.32198 406.69149 335.48397 408 335.38477 z M 369.5293 337.52539 C 369.78906 337.5207 369.98769 337.5507 370.10547 337.625 C 370.54019 337.89943 371.17673 339.27074 371.51953 340.67188 C 371.86252 342.07301 372.38772 343.98837 372.68555 344.92773 C 373.14529 346.37843 373.07427 346.78646 372.2207 347.64062 C 371.26974 348.59227 368.75503 348.92908 367.22266 348.30859 C 365.86407 347.75852 362.14552 341.34952 362.56641 340.2832 C 362.93829 339.34112 367.71098 337.55789 369.5293 337.52539 z M 421.61523 339.82617 C 422.06355 339.87187 422.40816 340.42539 422.60938 341.50781 C 422.98781 343.54379 421.93153 346.36125 420.19922 347.9375 C 417.55612 350.3423 415.42326 350.54575 416.5957 348.28125 C 416.85933 347.77215 417.78986 345.72639 418.66406 343.73633 C 419.82889 341.08458 420.86804 339.74997 421.61523 339.82617 z M 357.06055 343.12891 C 357.40605 343.10295 357.69964 343.1921 357.94336 343.39453 C 359.12461 344.37557 360.1207 349.45675 359.42969 350.97461 C 358.96934 351.98563 358.47507 352.25861 357.15234 352.22461 C 355.0552 352.17226 352.65457 351.1457 351.41016 349.76953 C 350.48523 348.74668 350.50876 348.67573 352.54688 346.46289 C 354.52515 344.315 356.02402 343.20681 357.06055 343.12891 z M 398.44727 357.43555 L 402.36719 357.43555 C 404.52394 357.43555 406.82211 357.6384 407.47461 357.88672 C 408.12718 358.13518 409.93953 358.75352 411.50195 359.26172 C 415.90491 360.69386 420.30629 364.03153 422.54102 367.63281 C 424.29868 370.46523 424.25303 371.13098 422.2207 372.19141 C 420.3487 373.16841 413.72948 373.65938 411.24414 373.00586 C 404.97224 371.35659 399.40836 365.56684 398.75 360.00391 L 398.44727 357.43555 z M 379.75195 357.48828 C 386.56842 357.49285 391.00642 361.48894 386.96289 365.71289 C 384.92021 367.84666 382.72586 368.8916 375.20898 371.3125 C 371.62595 372.46647 367.57675 373.98351 366.21094 374.68359 C 358.73964 378.51306 353.57946 384.45411 351.56055 391.55078 C 350.77218 394.32202 350.48488 394.73049 349.67969 394.23242 C 347.87916 393.11878 346.81873 386.28959 347.78516 382.0332 C 348.62009 378.35576 349.10024 377.28994 351.63672 373.45898 C 356.16807 366.61505 364.96354 360.79155 374.72852 358.16992 C 376.47996 357.69969 378.17892 357.48728 379.75195 357.48828 z M 392.63867 370.35742 C 392.74684 370.35742 393.72311 371.20666 394.80859 372.24414 C 398.35644 375.63509 402.40882 377.86493 408.72656 379.90234 C 415.53179 382.09693 419.89646 384.00054 420.9082 385.2168 C 421.31885 385.71055 421.69932 388.32405 421.90039 392.01562 C 422.07996 395.31383 422.40415 401.1638 422.62109 405.01562 C 423.00676 411.86806 422.51305 416.4335 420.83203 421.53125 C 420.5977 422.24195 419.99747 424.22 419.49805 425.92578 C 418.45992 429.47139 418.34207 429.80053 416.36719 434.71289 C 412.88889 443.36461 408.40958 448.88244 402.50195 451.79688 C 399.49145 453.28192 398.12109 453.63896 394.7168 453.82227 C 392.44424 453.9451 389.77159 453.85681 388.77734 453.62891 C 381.27729 451.90816 375.02452 446.98274 371.32617 439.88086 C 367.01279 431.59787 366.58718 424.95589 369.87109 417.16602 C 372.0458 412.00726 376.43831 408.67052 383.0957 407.11914 C 385.39736 406.58279 387.42096 406.00287 387.5918 405.83203 C 387.76278 405.66078 387.97033 404.16181 388.05273 402.50195 C 388.27089 398.10409 386.50659 394.46031 383.49805 393.09375 C 382.2824 392.54152 380.44466 392.08612 379.41406 392.07812 C 377.25201 392.06513 374.27614 390.941 373.30469 389.76953 C 371.08285 387.09026 374.61328 382.93522 381.27148 380.39258 C 385.44786 378.79773 388.1041 376.64208 390.92578 372.55469 C 391.75985 371.34641 392.53058 370.35742 392.63867 370.35742 z M 433.50391 389.73047 C 433.65441 389.74888 433.87456 389.89937 434.16992 390.08398 C 435.15335 390.69865 436.63485 393.68955 437.83984 397.49414 C 438.19999 398.63136 438.65578 399.79548 438.85156 400.08008 C 439.04746 400.36437 439.46074 401.52684 439.76953 402.66406 C 440.07843 403.80125 440.70189 406.03244 441.1543 407.62109 C 442.39512 411.97798 442.25593 418.84052 440.875 421.42969 C 440.26941 422.56521 439.2134 423.75151 438.52734 424.06445 C 436.85275 424.82796 434.75404 424.78472 434.71094 423.98633 C 434.69204 423.63094 434.67673 418.2233 434.67773 411.96875 C 434.67921 404.88338 434.40609 398.74507 433.95508 395.68555 C 433.23474 390.79882 433.05239 389.67527 433.50391 389.73047 z M 408.39844 390.27734 C 402.29739 390.2511 398.07417 391.74791 395.96875 394.70703 C 394.8962 396.2145 394.79565 396.99826 394.63086 405.18555 C 394.38859 417.21729 394.18813 419.55411 393.24219 421.38477 C 392.26643 423.27328 389.33831 425.10163 386.47656 425.60938 L 384.38672 425.98047 L 385.93555 426.83594 C 387.74802 427.83702 393.94545 428.03969 396.41602 427.17773 C 400.07543 425.90109 401.81306 421.50302 401.91016 413.27344 C 401.94875 409.99678 402.16663 407.01581 402.39453 406.64844 C 402.68695 406.17768 403.67278 406.05485 405.73633 406.23438 C 414.6601 407.01031 419.76758 407.13331 419.76758 406.57031 C 419.76758 406.24731 419.31179 405.09058 418.75586 404 C 417.5675 401.66879 415.20656 400.13342 412.0293 399.625 C 409.5539 399.22887 408.4043 398.5378 408.4043 397.44922 C 408.4043 396.43956 409.72193 395.8822 414.35352 394.92969 C 422.15302 393.32562 421.54 391.44844 412.91992 390.54102 C 411.31506 390.37204 409.80637 390.28334 408.39844 390.27734 z M 355.78125 394.65039 C 356.11855 394.65471 356.28994 395.10115 356.27344 395.99609 C 356.19683 400.28185 355.76304 421.34393 355.74414 421.60547 C 355.69092 422.40548 354.21105 422.40563 352.99219 421.60547 C 349.37344 419.22977 348.02326 414.63333 349.17383 408.60938 C 350.09641 403.77899 351.4504 400.24332 353.69336 396.81445 C 354.63762 395.37091 355.34758 394.64439 355.78125 394.65039 z M 292.79883 395.55078 C 294.49851 395.67058 298.9294 404.51586 300.75781 411.71094 C 302.13777 417.13857 302.15263 431.65086 300.78516 438.33008 C 299.20679 446.03963 297.29401 452.63974 295.52148 456.5 C 295.11031 457.39582 294.77539 458.28614 294.77539 458.47852 C 294.77539 459.08241 291.047 466.64179 289.41602 469.3457 C 288.55855 470.76718 286.49757 473.73223 284.83594 475.93555 C 282.87538 478.53522 281.45998 479.94141 280.80469 479.94141 C 279.88222 479.94141 279.79492 479.56362 279.79492 475.56836 C 279.79492 465.19953 281.45667 454.84381 286.22266 435.48828 C 290.25685 419.10471 292.46811 405.54333 292.05859 399.69727 C 291.88307 397.19155 292.00468 396.0546 292.49609 395.64648 C 292.58354 395.57388 292.68552 395.54278 292.79883 395.55078 z M 250.75781 410.17578 C 251.35807 410.22634 251.40983 412.51584 251.18164 418.81836 C 251.00929 423.5803 250.72987 438.29188 250.56055 451.51172 C 250.2964 472.13414 250.37314 476.48967 251.10742 482.18164 C 251.57816 485.8304 252.15106 489.31986 252.38086 489.93555 C 252.61049 490.55123 252.64897 491.47021 252.4668 491.97852 C 252.17048 492.80476 251.99516 492.75118 250.79883 491.46289 C 244.28716 484.45047 241.34299 467.50765 243.14844 447.43359 C 243.9881 438.09744 244.64338 433.09948 245.80078 427.2168 C 246.38808 424.23169 247.03816 420.85988 247.24414 419.72266 C 247.78813 416.72107 249.36367 411.55545 249.96484 410.80469 C 250.29688 410.38996 250.55773 410.15898 250.75781 410.17578 z M 387.95312 432.70508 C 385.36645 432.75694 384.89748 433.04944 383.48242 434.13086 C 382.41716 434.94497 381.54688 435.78973 381.54688 436.00781 C 381.54687 436.22612 382.88231 436.6507 384.51562 436.95117 C 387.43316 437.48768 400.66779 437.31496 403.08008 436.70898 C 404.83487 436.26825 403.81884 435.2664 400.22266 433.89258 C 397.89435 433.00333 396.09077 432.76319 391.35938 432.71289 C 389.91286 432.69689 388.81538 432.68778 387.95312 432.70508 z M 435.70117 436.8418 C 436.45257 436.73004 439.52596 440.16304 444.35156 446.69336 C 451.0682 455.78278 452.77975 461.01842 449.90625 463.68359 C 448.62246 464.87418 446.18796 465.37606 445.41992 464.60742 C 445.23057 464.41792 445.07422 463.73004 445.07422 463.08008 C 445.07422 462.43007 444.86928 461.364 444.61719 460.71094 C 444.36506 460.05791 443.52934 457.54738 442.76172 455.13086 C 441.99406 452.71434 441.17864 450.27172 440.94922 449.70312 C 439.8747 447.04208 438.60069 444.24017 436.97852 440.9668 C 435.63367 438.25308 435.25034 436.9088 435.70117 436.8418 z M 421.25586 450.69922 C 421.50735 450.8549 421.74334 453.76071 421.77734 457.1582 C 421.81212 460.55577 421.9551 463.64063 422.0957 464.01367 C 422.31824 464.60434 422.77764 468.88154 423.74414 479.34766 C 423.88474 480.86911 423.80363 482.29818 423.5625 482.52344 C 423.32148 482.74839 422.31069 482.57535 421.31641 482.14062 C 420.32213 481.70595 419.04466 481.17688 418.47656 480.96484 C 407.12025 476.72138 400.09658 471.87295 399.32227 467.74219 C 398.9922 465.98134 399.12164 465.65569 400.74805 464.16406 C 401.73205 463.26159 403.68157 462.11413 405.08203 461.61523 C 410.77884 459.58597 413.33888 458.00813 417.05469 454.22656 C 419.11374 452.13108 421.00414 450.5435 421.25586 450.69922 z M 255.875 457.87695 C 256.09774 457.82762 256.31105 458.26143 256.76367 459.33984 C 257.19862 460.37619 257.77424 462.46987 258.04297 463.99219 C 259.89127 474.46949 264.36689 485.56384 268.60938 490.18359 C 271.12321 492.92107 276.4278 493.95146 279.6582 492.33008 C 284.01396 490.14381 288.70291 485.36391 294.01953 477.6875 C 295.75694 475.1791 295.76052 475.17772 296.10938 476.56836 C 296.69229 478.89288 294.7565 486.59691 291.59961 494.52148 C 288.18862 503.08385 284.4353 508.40658 279.58594 511.55859 C 276.79547 513.37243 276.24738 513.53633 273.13086 513.49023 C 269.30753 513.43335 268.07638 512.90733 265.18164 510.0957 C 261.07465 506.1066 258.33968 498.91195 256.27148 486.66016 C 255.28919 480.84059 254.64823 459.80801 255.41211 458.45312 C 255.60515 458.11081 255.74135 457.90655 255.875 457.87695 z M 357.29688 458.10742 C 357.86355 458.06048 358.81381 458.55962 359.85352 459.5332 C 360.84776 460.46421 363.86966 462.86031 366.56836 464.85938 C 369.26706 466.85836 372.14689 469.02149 372.96875 469.66602 C 375.98032 472.02765 385.04014 477.53979 390.06445 480.06641 C 398.28477 484.20004 403.75545 486.01486 414.60156 488.20898 C 416.16398 488.52503 423.02011 488.97169 429.83789 489.19922 C 445.93649 489.73723 447.4446 490.35507 443.38867 494.76562 C 441.05221 497.30641 436.95301 500.46118 429.06445 505.78906 C 409.85818 518.76101 387.57254 536.56622 367.08398 555.30859 C 360.01177 561.77805 339.20469 582.65557 332.95898 589.54883 C 325.77501 597.47756 317.42045 607.10362 314.47461 610.84766 C 311.80108 614.24553 310.51108 615.04953 309.97461 613.65039 C 309.82989 613.273 309.94228 612.35637 310.22461 611.61328 C 310.5069 610.87011 310.88738 608.44455 311.07031 606.22461 C 311.25317 604.00467 311.87132 598.58436 312.44531 594.17773 C 313.01935 589.77115 313.68376 584.65261 313.92188 582.80469 C 315.09432 573.70793 315.41017 571.49446 315.87305 569.10742 C 316.14869 567.68598 316.64951 564.7787 316.98438 562.64648 C 317.74897 557.7786 318.97399 550.6999 319.58008 547.65625 C 319.83486 546.37692 321.10923 540.09592 322.41211 533.69922 C 323.71495 527.30256 324.98165 521.02156 325.22656 519.74219 C 325.76167 516.94885 329.18493 502.54832 329.83398 500.35938 C 330.08687 499.50649 330.56666 497.64609 330.90039 496.22461 C 331.76186 492.55408 333.03942 487.66012 333.53125 486.14453 C 333.76188 485.43379 334.23104 483.57343 334.57422 482.00977 C 334.91729 480.44618 335.4852 478.60378 335.83594 477.91602 L 336.47266 476.66406 L 337.03125 478.43164 C 337.91921 481.24599 338.06497 482.79064 339.71484 506.82031 C 340.12779 512.83464 341.15527 522.0012 342.23633 529.30469 C 343.35571 536.86703 346.90924 547.49008 347.91992 546.29492 C 348.12885 546.04782 348.95048 542.47389 349.74414 538.35156 C 350.53777 534.22927 351.37775 530.04183 351.61133 529.04688 C 352.39244 525.71949 353.57519 520.56287 354.69336 515.60742 C 357.08818 504.99409 360.07464 497.16532 361.54688 497.64453 C 361.89338 497.75739 362.71227 498.81291 363.36719 499.99023 C 364.0221 501.1676 366.81242 504.41048 369.56641 507.19531 C 375.30588 512.99904 380.34552 516.17124 386.32617 517.74609 C 390.01885 518.71857 393.77222 518.88609 394.25781 518.09961 C 394.39501 517.87749 391.94572 515.10231 388.81445 511.93359 C 380.32692 503.34454 377.25532 498.97442 379.1875 498.23242 C 379.63424 498.06083 380.991 498.38581 382.20117 498.95508 C 389.01335 502.15967 400.45149 503.42051 410.54102 502.07617 C 416.81446 501.24022 416.7505 501.09048 408.91992 498.25391 C 384.46747 489.39605 369.28101 478.77324 359.65625 463.79297 C 358.05966 461.30797 356.75391 459.06023 356.75391 458.79688 C 356.75391 458.36096 356.95682 458.13562 357.29688 458.10742 z M 310.7793 467.5 C 311.39937 467.51336 311.54956 470.46656 311.50586 479.59961 C 311.45136 490.99065 310.61424 500.7786 309 508.88867 C 308.23612 512.72652 308.03715 513.53875 306.4375 519.39062 C 304.53379 526.35478 299.69044 536.24729 295.19141 542.35742 C 294.0924 543.85 293.02397 545.07227 292.81836 545.07227 C 291.39472 545.07227 289.89084 536.53054 290.27344 530.62109 C 290.59912 525.58971 291.86558 521.76745 295.64258 514.42383 C 300.35421 505.26297 302.45941 500.69755 303.82812 496.66797 C 304.58694 494.43397 305.39193 492.14086 305.61719 491.57227 C 306.28533 489.88569 308.281 481.45662 308.73828 478.39062 C 308.97152 476.82704 309.39301 473.84268 309.67383 471.75781 C 309.95453 469.67287 310.31845 467.82998 310.48438 467.66406 C 310.5929 467.5554 310.6907 467.498 310.7793 467.5 z M 476.43945 501.65039 C 481.56876 501.65039 484.25229 502.21564 488.71875 504.23633 C 494.99878 507.07751 498.28268 511.82512 498.26758 518.04883 C 498.25945 521.78882 496.75858 527.57233 495.70508 527.92383 C 495.35653 528.04005 494.03823 526.95425 492.77734 525.51172 C 491.26807 523.78508 489.31419 522.3115 487.05664 521.19922 C 484.1108 519.74762 483.1018 519.51647 479.90625 519.54297 C 476.69713 519.57124 475.7792 519.80531 473.21094 521.25586 C 469.91572 523.11705 467.49664 524.9461 454.63086 535.29883 C 438.96993 547.90072 428.36214 557.00498 414.34766 569.87695 C 403.41768 579.91591 382.61001 600.4137 376.43359 607.22656 C 374.04839 609.85757 370.44762 613.77295 368.42969 615.92773 C 353.87975 631.46443 333.62181 656.28457 321.21094 673.78125 C 316.64504 680.21805 309.23633 690.93451 309.23633 691.10156 C 309.23633 691.20595 307.77136 693.45611 305.98047 696.10352 C 304.18954 698.751 302.55767 701.26688 302.35547 701.69336 C 302.15326 702.11977 301.30284 703.51563 300.46484 704.79492 C 299.62685 706.07429 298.46442 707.9925 297.88086 709.05859 C 296.83098 710.97659 295.45975 711.60104 295.04102 710.35156 C 293.65843 706.22602 292.18987 696.33913 292.20117 691.23242 C 292.21255 685.85007 293.82234 675.86377 295.30664 671.9707 C 295.5234 671.40211 296.22323 669.42605 296.86133 667.57812 C 300.69105 656.48703 309.20542 643.31371 319.83984 632.02539 C 323.69549 627.93265 325.00053 626.83848 325.51953 627.26953 C 326.02372 627.688 326.06546 628.24659 325.68555 629.48242 C 323.65745 636.07944 321.13731 651.58331 321.80859 653.33398 C 322.12562 654.16087 322.33364 654.06157 323.49414 652.52734 C 324.70888 650.9215 336.55323 632.96487 350.11523 612.17188 C 365.09566 589.20403 371.91143 580.56318 386.86914 565.57422 C 393.21123 559.21879 397.37098 555.42638 397.8125 555.5957 C 398.21835 555.75153 398.60022 555.49315 398.69922 554.99414 C 398.79473 554.51263 399.01641 554.35017 399.19141 554.63477 C 399.36636 554.9191 398.49077 557.24407 397.24609 559.80273 C 394.83544 564.75841 394.43327 565.87524 392.87891 571.95117 C 391.88557 575.83328 391.59268 579.24848 392.19922 579.85547 C 392.37697 580.03341 399.17525 573.70943 407.30664 565.80273 C 429.56987 544.15477 447.78881 527.78171 458.16406 520.0957 C 461.6003 517.55042 461.58838 516.88116 458.11133 516.97266 C 453.43159 517.09587 446.33283 519.93264 438.42383 524.8418 C 436.07107 526.30221 433.97375 527.49609 433.76172 527.49609 C 433.54965 527.49609 432.82931 528.07832 432.16211 528.78906 C 431.49491 529.4998 430.75493 530.08203 430.51758 530.08203 C 430.02605 530.08203 423.72305 534.69026 420.36328 537.50586 C 419.129 538.54024 417.87312 539.23275 417.57227 539.04688 C 417.2631 538.85537 417.17531 538.95243 417.37109 539.26953 C 417.56158 539.57817 417.49762 539.96651 417.22852 540.13281 C 415.98222 540.90365 416.23673 539.09913 417.75391 536.40625 C 419.92313 532.55616 429.01346 523.58561 435.16211 519.22656 C 451.2813 507.7989 465.71856 501.65039 476.43945 501.65039 z M 316.01953 517.70312 C 316.15638 517.74708 316.27365 517.94078 316.45312 518.19141 C 317.04753 519.02113 316.98468 519.47954 315.67969 523.87891 C 314.75125 527.00896 312.57577 536.99268 311.84961 541.45312 C 307.25491 569.6761 305.71291 581.21753 304.70703 594.94727 C 304.27129 600.89462 303.49599 601.77779 301.62891 598.45312 C 299.17146 594.07734 298.35947 589.4133 298.35547 579.70312 C 298.35279 571.00054 298.78518 567.04466 300.92383 556.18555 C 302.24084 549.49854 305.70568 537.94633 307.90234 532.92383 C 310.69466 526.53934 311.72171 524.39829 313.22656 521.82031 C 314.93569 518.89255 315.51974 517.85881 315.87305 517.71289 C 315.92603 517.69039 315.97393 517.68853 316.01953 517.70312 z M 479.19531 532.77734 C 479.49375 532.80149 479.80935 533.09254 480.42969 533.67578 C 482.89511 535.99377 484.42676 541.06708 486.12891 552.56641 C 486.59178 555.6937 487.18906 559.36797 487.45703 560.73242 C 487.72519 562.09683 487.94531 564.32744 487.94531 565.6875 C 487.94531 567.0476 488.16569 569.41905 488.43555 570.95898 C 489.52934 577.20235 490.21702 585.21785 491.80469 610.20117 C 493.05839 629.92963 494.70733 680.15123 494.23633 684.24805 C 494.0246 686.08958 493.61965 686.0365 492.24023 683.98633 C 488.52719 678.46773 484.93129 668.85673 483.29688 660.08203 C 481.81318 652.1169 481.62008 647.05896 481.26367 606.8418 C 480.87219 562.64646 480.71507 559.50666 478.37305 548.94727 C 477.93167 546.95719 477.43545 542.88749 477.26953 539.90234 C 476.98629 534.81072 477.03476 534.41262 478.07031 533.48438 C 478.6157 532.99544 478.89687 532.75324 479.19531 532.77734 z M 469.24609 533.70703 C 470.4357 533.73303 470.94964 534.90564 471.18359 538.13086 C 471.32646 540.10018 471.56152 542.2528 471.70703 542.91406 C 472.39664 546.04672 473.46884 561.08322 473.46484 567.55664 C 473.45022 588.55022 467.72306 599.3457 456.59961 599.3457 C 453.38554 599.3457 453.33984 599.36667 453.33984 600.77148 C 453.33984 601.55517 453.57774 603.00873 453.86914 604.00195 C 454.1605 604.99514 454.60942 607.08676 454.86719 608.65039 C 455.12488 610.21402 455.90876 614.1681 456.60938 617.4375 C 457.30991 620.7069 458.60375 626.98794 459.48438 631.39453 C 460.36496 635.80116 461.31444 640.45313 461.59375 641.73242 C 462.21208 644.5648 463.1039 649.93204 464.94336 661.89258 C 465.40246 664.87772 465.89216 668.59848 466.03125 670.16211 C 466.17034 671.72578 466.56509 674.8663 466.91016 677.14062 C 467.27567 679.55125 467.52692 686.44978 467.51562 693.68164 C 467.49639 704.95934 467.38904 706.46346 466.32812 710.22266 C 464.97249 715.02651 463.62908 718.01931 462.89453 717.87305 C 462.21981 717.73834 461.8031 714.9657 461.08594 705.82812 C 460.76241 701.70591 460.29317 697.28718 460.04297 696.00781 C 458.34857 687.3496 457.60424 684.27617 456.03906 679.4668 C 454.09215 673.48441 451.21475 666.88785 450.30664 666.32617 C 449.88212 666.06372 449.72266 668.28948 449.72266 674.49414 C 449.72266 688.06881 448.00571 706.00341 445.79102 715.56055 C 443.03056 727.47271 438.20451 734.76281 431.38477 737.31641 L 431.38281 737.31641 C 427.37277 738.81797 424.45717 739.10601 424.04883 738.04102 C 423.87905 737.59843 423.89948 731.73975 424.09375 725.02148 C 424.88851 697.51563 426.1554 678.83663 428.63477 658.01562 C 429.21035 653.18263 429.87353 647.59941 430.10938 645.60938 C 430.4956 642.34825 431.06038 638.62019 432.73438 628.29297 C 433.56144 623.19008 434.10669 620.16668 435.01562 615.62891 C 436.27459 609.34431 436.634 607.67147 437.57227 603.74023 C 438.04728 601.7502 438.62334 599.30757 438.85352 598.3125 C 439.08361 597.31746 439.66282 595.10808 440.14062 593.40234 C 440.61855 591.69653 441.32685 589.13831 441.71289 587.7168 C 445.95594 572.09249 453.12633 555.49882 460.37305 544.53906 C 462.82309 540.83369 468.6713 533.69573 469.24609 533.70703 z M 449.22461 550.64062 C 449.27344 550.64212 449.31234 550.65609 449.33984 550.68359 C 449.71579 551.05985 449.02879 552.29262 447.08203 554.73828 C 442.67934 560.26909 441.85745 561.46467 437.73047 568.33203 C 433.75528 574.94677 426.52389 588.83275 422.25 598.05469 C 418.27118 606.63988 416.66797 610.21162 416.66797 610.5 C 416.66797 610.65061 416.22688 611.75065 415.6875 612.94336 C 413.66878 617.40664 407.36781 632.91539 405.04102 639.14844 C 403.7144 642.70214 402.32547 646.30727 401.95508 647.16016 C 401.58461 648.01304 400.3169 651.38489 399.13867 654.6543 C 397.9604 657.92374 396.78586 661.06426 396.52734 661.63281 C 395.69827 663.45711 383.60249 699.3828 381.29883 706.86328 C 380.64217 708.99554 379.48037 712.71626 378.7168 715.13281 C 377.95326 717.54933 376.51545 722.2013 375.52148 725.4707 C 373.69287 731.48563 373.22204 733.10201 368.95703 747.95703 C 367.65102 752.50581 365.99738 758.25013 365.2832 760.72266 C 364.56902 763.19522 363.98438 765.65716 363.98438 766.19336 C 363.98436 766.7296 363.81044 767.34152 363.59766 767.55469 C 363.24907 767.90346 362.81917 769.39842 361.42773 775.09375 C 361.18464 776.08879 360.59894 778.29817 360.12695 780.00391 C 359.655 781.70972 359.07443 784.03664 358.83594 785.17383 C 358.59756 786.31105 357.82489 789.38652 357.11914 792.00781 C 356.12879 795.68654 355.97848 796.89223 356.46094 797.29297 C 358.35996 798.87024 368.56961 782.93296 373.99414 769.92383 C 374.52762 768.64446 375.30136 766.7841 375.71484 765.78906 C 376.12831 764.79403 376.81077 763.18677 377.23047 762.2168 C 379.34111 757.33928 385.04708 741.59906 389.80078 727.53906 C 391.77124 721.71099 394.92029 712.52272 396.79883 707.12109 C 398.67748 701.71943 400.75625 695.67171 401.41797 693.68164 C 402.74485 689.69114 408.076 675.45443 409.16016 673.00586 C 409.53777 672.15301 410.35953 670.17496 410.98633 668.61133 C 412.85496 663.95019 417.18454 654.56223 418.5957 652.11328 C 419.84026 649.95343 419.95118 649.88265 420.63867 650.82031 C 421.03775 651.36558 421.22836 652.27707 421.06055 652.8457 C 420.89266 653.4143 420.64873 658.29955 420.51758 663.70117 C 420.29357 672.94008 419.96564 678.08925 418.69141 692.38867 C 417.7178 703.31468 417.23198 707.6029 416.4043 712.54883 C 415.95223 715.24964 415.39146 718.73907 415.16016 720.30273 C 414.47572 724.92786 412.11406 736.05832 410.67969 741.41992 C 409.94597 744.16246 409.15463 747.18081 408.91992 748.12891 C 408.6851 749.07696 408.26526 750.47279 407.98633 751.23047 C 407.70732 751.98819 406.9638 754.35212 406.33398 756.48438 C 403.34306 766.61018 394.10793 787.23852 388.40039 796.54492 C 382.464 806.22459 375.93524 815.72156 370.98633 821.87305 C 360.48676 834.92398 345.43581 851.73719 329.34961 868.38477 C 325.49801 872.37077 320.62431 877.49321 318.51953 879.76758 C 316.41475 882.04198 312.08944 886.6538 308.90625 890.01758 L 303.11719 896.13477 L 302.30859 894.89844 C 301.86363 894.2188 301.23928 892.39661 300.92188 890.84961 C 300.60439 889.30261 300.0189 886.40808 299.61914 884.41797 C 299.21934 882.4279 298.51965 876.8467 298.06641 872.01367 C 297.36149 864.49642 297.33361 861.80588 297.86523 853.4043 C 298.20702 848.00263 298.94859 840.55917 299.51367 836.86328 C 300.07875 833.16743 300.73933 828.86441 300.98047 827.30078 C 301.59714 823.3037 303.90558 812.59858 304.88281 809.20898 C 305.3336 807.64536 305.87788 805.55171 306.0918 804.55664 C 306.63265 802.03959 308.61221 795.19198 310.07617 790.77148 C 310.75104 788.73364 311.30273 786.62878 311.30273 786.09375 C 311.30273 785.55868 311.48725 784.90072 311.71289 784.63086 C 311.9386 784.36077 312.55688 782.7448 313.08594 781.03906 C 314.27052 777.2197 317.83132 767.198 320.3418 760.62109 C 321.3727 757.92024 322.64776 754.54648 323.17383 753.125 C 323.69994 751.70348 324.7042 749.14527 325.40625 747.43945 C 326.1083 745.73371 327.96572 741.19733 329.5332 737.35938 C 332.97461 728.93326 333.76705 727.05575 335.37305 723.51758 C 336.05434 722.01658 336.61133 720.69504 336.61133 720.58203 C 336.61133 720.4691 337.44621 718.55809 338.4668 716.33398 C 339.48738 714.10992 340.6286 711.59121 341.00391 710.73828 C 347.26734 696.50655 350.76526 688.79207 352.6582 685.03125 C 353.1924 683.97 353.50262 682.77276 353.34766 682.36914 C 352.58642 680.38379 332.91831 705.8843 327.08008 716.42578 C 326.2928 717.84726 325.11221 719.94102 324.45703 721.07812 C 320.94097 727.18085 319.62976 729.68694 315.12891 738.91016 C 312.4236 744.45393 310.00039 749.45485 309.74414 750.02344 C 308.29378 753.24314 304.11873 763.39162 301.66211 769.66602 C 300.10377 773.6462 298.62117 777.36891 298.36719 777.9375 C 298.11328 778.50609 297.19355 780.8311 296.32422 783.10547 C 295.45485 785.37984 294.54173 787.7068 294.29492 788.27539 C 294.04808 788.84402 293.55449 790.12215 293.19922 791.11719 C 292.84387 792.11226 292.26146 793.62563 291.9043 794.47852 C 291.54709 795.33144 290.49105 797.94751 289.55664 800.29297 C 288.62223 802.63839 287.67902 804.55664 287.46094 804.55664 C 286.30043 804.55664 286.16923 802.05622 286.79883 791.89258 C 287.63501 778.39354 288.29489 773.69063 291.00391 761.91211 C 291.72319 758.78485 292.50767 755.76195 292.74805 755.19336 C 292.98842 754.62477 293.57079 752.76437 294.04297 751.05859 C 294.95051 747.77966 297.9792 739.24817 299.20898 736.50586 C 299.6106 735.61 299.93945 734.74298 299.93945 734.58008 C 299.93945 733.42063 308.23368 716.79556 312.2207 709.96289 C 316.44724 702.71977 324.10618 691.00833 328.00586 685.82422 C 328.9041 684.63023 330.79103 682.07194 332.20117 680.13867 C 335.46657 675.66201 346.78805 661.55654 350.37305 657.49805 C 353.27361 654.21439 358.43059 648.05564 362.66211 642.82031 C 364.06473 641.08494 365.40882 639.66406 365.64844 639.66406 C 366.42317 639.66406 366.71967 641.25454 366.16211 642.41406 C 364.4083 646.06082 363.55043 650.7765 363.13672 659.04883 C 362.94298 662.92012 363.02105 664.56867 363.38086 664.2168 C 363.67139 663.9325 367.78348 657.53584 372.51953 650.00195 C 382.49684 634.13051 383.01103 633.33421 390.32227 622.34766 C 400.20116 607.50258 414.0821 588.4035 419.89648 581.65625 C 436.01009 562.9575 447.70979 550.59513 449.22461 550.64062 z M 582.72266 567.81445 C 583.09853 567.81445 585.63449 569.26805 588.35938 571.04492 C 591.08418 572.82175 595.34763 575.58064 597.83203 577.17383 C 608.78571 584.19782 612.41992 586.67366 612.41992 587.11133 C 612.41992 587.36898 611.78123 588.36452 611 589.32422 C 610.21881 590.28395 608.93939 591.85949 608.1582 592.82422 C 606.75898 594.55218 606.28969 596.24414 607.20898 596.24414 C 607.46754 596.24414 608.80289 597.13006 610.17773 598.21289 C 611.55261 599.29576 613.10206 600.34209 613.61914 600.53711 C 614.14899 600.73716 614.48558 601.28776 614.39258 601.79883 C 614.3016 602.29761 610.74155 607.89342 606.48047 614.23438 C 602.21935 620.57532 598.50102 626.15691 598.2168 626.63672 C 597.2162 628.327 595.4883 630.3008 595.23242 630.04492 C 595.09008 629.90247 594.42436 629.71385 593.75391 629.62695 C 593.08342 629.54014 591.88341 629.29394 591.08789 629.07812 C 589.64604 628.68695 585.54919 629.69373 583.1543 631.0293 C 582.54005 631.37187 580.16363 633.25677 577.87305 635.2168 C 572.20141 640.07001 567.41808 645.62006 563.34961 652.07031 C 562.36338 653.63398 560.26265 656.6588 558.68164 658.79102 C 552.78049 666.74817 551.5947 669.96878 552.74609 674.9082 C 553.39632 677.69768 555.74065 682.05078 556.5918 682.05078 C 556.7725 682.05078 557.76501 682.74871 558.79883 683.60156 L 560.67969 685.15234 L 550.85156 700.01367 C 545.44638 708.18724 540.03662 716.38645 538.83008 718.23438 C 537.62354 720.08226 532.71111 727.54515 527.91406 734.81836 C 523.11697 742.09157 518.90013 748.4882 518.54297 749.0332 C 518.18584 749.57817 517.62651 750.54785 517.29883 751.1875 L 517.29688 751.1875 C 516.1095 753.50594 514.87087 752.03621 514.26172 747.58789 C 514.01699 745.80082 513.44118 742.01093 512.98242 739.16797 C 510.89748 726.24686 509.12705 695.2727 509.12305 671.65039 L 509.12109 655.30664 L 512.08984 650.89453 C 513.72328 648.46838 520.79298 637.91254 527.79883 627.4375 C 541.97213 606.24576 545.6729 600.84529 552.01562 592.10938 C 553.15092 590.54571 554.94736 588.07252 556.00586 586.61328 C 559.82473 581.3487 566.11905 574.03062 567.09375 573.7207 C 567.70909 573.5253 569.23702 574.01543 571.09375 575.00586 C 572.74627 575.88736 574.41194 576.47622 574.79492 576.31445 C 575.1779 576.1528 576.42033 574.85219 577.55664 573.42383 C 578.69292 571.99554 580.16564 570.14863 580.83008 569.32031 C 581.49448 568.49199 582.34659 567.81445 582.72266 567.81445 z M 507.37695 569.18555 C 507.91383 569.32107 508.90826 571.80904 512.72461 581.51367 C 514.51342 586.06241 516.49599 590.94571 517.12891 592.36719 C 521.18532 601.47755 522.29102 605.52147 522.29102 611.23438 C 522.29102 615.49809 522.10656 616.54095 520.88672 619.14648 C 520.09075 620.8467 518.09615 623.59106 516.28516 625.47852 C 514.52718 627.31072 512.90778 628.81055 512.68555 628.81055 C 511.66417 628.81055 511.64856 628.71618 510.73438 615.92188 C 510.42083 611.53399 510.04552 607.23089 509.90039 606.35938 C 509.75533 605.4877 509.40166 601.28401 509.11328 597.01953 C 508.21655 583.75029 507.65361 577.57267 507.01562 574 C 506.58623 571.59478 506.56251 570.26471 506.93555 569.59766 C 507.05408 569.38567 507.15565 569.2261 507.27539 569.1875 C 507.30785 569.1775 507.34115 569.17655 507.37695 569.18555 z M 589.89648 638.60547 C 591.26973 638.60302 592.84286 639.1137 594.625 640.13672 C 599.44832 642.90553 603.16821 648.27187 604.43945 654.29492 C 604.99606 656.93144 604.95377 657.6903 604.08984 660.57227 L 604.08984 660.57422 C 603.43965 662.74318 602.69246 664.12339 601.88281 664.6543 C 600.4153 665.61664 599.93489 665.29735 600.52344 663.74805 C 601.04773 662.36803 600.0773 658.32512 598.45312 655.11914 C 597.02239 652.29466 590.50713 645.78865 587.64648 644.32812 C 584.84786 642.89932 584.57924 642.02 586.36719 640.15234 C 587.35092 639.12401 588.52324 638.60747 589.89648 638.60547 z M 577.66797 648.56641 C 580.18836 648.64479 583.25278 650.43614 586.52148 653.84766 C 590.7383 658.24873 592.79297 662.71577 592.79297 667.48047 C 592.79297 669.47776 592.65282 671.47996 592.48047 671.92969 C 592.30805 672.37919 591.85691 672.74609 591.48047 672.74609 C 590.75869 672.74609 590.496 672.09953 589.99219 669.09375 C 589.56767 666.56082 586.12649 661.42377 583.13477 658.85547 C 581.77096 657.68468 579.11885 655.91482 577.24023 654.92383 C 572.66958 652.51279 572.29799 652.01674 573.79102 650.29688 C 574.83897 649.08961 576.15573 648.51941 577.66797 648.56641 z M 571.82031 657.83398 C 572.73081 657.90086 573.80163 658.31489 575.48242 659.11133 C 582.8031 662.58022 588.27055 672.95238 586.63477 680.26758 C 586.2883 681.81707 585.80678 683.08398 585.56641 683.08398 C 585.32588 683.08398 584.62444 681.56743 584.00781 679.71289 C 582.38889 674.84422 578.76209 670.61833 572.9082 666.7832 C 570.79809 665.40077 567.88605 663.99926 567.08203 663.97656 C 565.01943 663.92195 566.4509 660.17819 569.12109 658.64453 C 570.15995 658.04786 570.90982 657.76708 571.82031 657.83398 z M 564.87891 668.16602 C 565.70617 668.1129 566.61572 668.42318 567.89258 669.07812 C 572.59178 671.4889 575.90458 675.10319 578.54492 680.70312 C 580.32391 684.47623 580.55524 690.3093 579.0293 692.89453 C 578.52246 693.75324 577.95019 694.45703 577.75781 694.45703 C 577.28284 694.45703 576.78125 693.06044 576.78125 691.73828 C 576.78125 687.48352 571.35858 680.64361 564.73828 676.54883 C 560.48265 673.91665 559.72546 671.65165 562.35938 669.43359 C 563.30665 668.63575 564.05164 668.21912 564.87891 668.16602 z M 562.66992 716.68555 C 563.52288 716.59002 562.86702 719.53751 561.06055 725.93164 C 558.39949 735.35068 556.71374 740.50054 556.05859 741.21094 C 555.80949 741.48106 555.60547 742.01744 555.60547 742.40234 C 555.60547 743.58329 550.65175 753.45012 548.32617 756.90234 C 545.64622 760.8806 541.67136 764.58685 538.26562 766.28125 C 535.10145 767.85557 530.9031 768.14064 527.71484 766.99805 C 526.43653 766.54001 525.31446 766.10209 525.22266 766.02539 C 524.90846 765.76302 526.72526 762.94945 529.41602 759.53125 C 531.58229 756.7793 538.36715 747.92478 547.08398 736.47266 C 549.17599 733.72415 553.73816 727.64862 557.77148 722.24023 C 560.43071 718.67442 562.00651 716.75985 562.66992 716.68555 z M 469.14844 737.11719 C 469.4248 737.14948 469.73291 737.30103 470.01367 737.58203 C 470.49654 738.06528 470.88412 740.03195 471.10938 743.14258 C 471.30092 745.79006 471.66959 749.11954 471.92773 750.54102 C 472.18569 751.9625 472.76217 756.14982 473.20898 759.8457 C 474.1745 767.83184 474.72169 772.19794 475.80078 780.52148 C 476.24306 783.93304 476.83769 788.70067 477.12305 791.11719 C 477.40848 793.5337 477.97117 798.07001 478.37305 801.19727 C 478.77489 804.32452 479.36542 809.32544 479.68555 812.31055 C 480.00579 815.29566 480.58317 820.29653 480.9668 823.42383 C 481.35042 826.55112 481.9203 831.552 482.23438 834.53711 C 482.54841 837.52222 483.0388 842.05852 483.32227 844.61719 C 484.01857 850.90179 484.7992 859.34959 485.37891 866.84375 C 485.64283 870.2553 486.21592 877.46748 486.65234 882.86914 C 487.08873 888.27077 487.66808 897.34142 487.93945 903.02734 C 488.2109 908.7133 488.58188 915.57458 488.76367 918.27539 C 489.16373 924.21703 487.98175 934.74774 486.375 939.54688 C 483.88686 946.97859 479.13536 952.79067 473.39648 955.42383 C 471.5972 956.24935 467.33664 957.90194 463.92773 959.0957 C 455.77507 961.95087 435.13954 969.82194 433.32812 970.76758 C 432.54535 971.17633 431.73768 971.51367 431.5332 971.51367 C 431.32854 971.51545 429.89052 972.09785 428.33789 972.80859 C 426.78534 973.51937 425.39148 974.10156 425.24219 974.10156 C 425.09274 974.10156 423.27738 974.8865 421.20703 975.8457 C 419.13664 976.80487 415.84777 978.31632 413.89844 979.20508 C 410.1524 980.91293 409.62072 981.05506 409.29492 980.43359 C 408.37933 978.6876 409.40824 916.98223 410.75391 892.94727 C 411.19161 885.12909 411.7549 875.06833 412.00586 870.58789 C 412.25701 866.10734 412.60222 861.22216 412.77344 859.73242 C 412.94473 858.24265 413.30512 853.64964 413.57422 849.52734 C 414.33398 837.88009 415.02849 828.85637 415.90039 819.28906 C 416.34078 814.45607 416.93012 807.71038 417.21094 804.29883 C 418.56049 787.9117 420.70906 779.24018 426.02734 768.69727 C 430.02994 760.76271 434.15312 755.55397 439.28516 751.95117 C 443.51679 748.98054 443.82859 749.40268 442.29297 756.00586 C 441.60355 758.97048 440.89078 762.44332 440.70898 763.72266 C 440.52726 765.00199 439.93707 768.84036 439.39648 772.25195 C 437.9532 781.36088 436.34146 794.41134 435.02539 807.6582 C 433.64031 821.59952 433.24651 826.49233 432.4375 839.70703 C 431.99367 846.95658 431.39616 856.60943 431.10938 861.1582 C 429.74833 882.74312 430.0084 927.65856 431.57422 941.2793 C 432.04292 945.35669 433.38019 948.65886 433.86133 946.92969 C 434.33445 945.22962 435.44547 938.01116 437.08008 926.0293 C 437.5261 922.75989 438.11377 918.51021 438.38477 916.58594 C 438.65595 914.66167 438.87519 912.33662 438.86719 911.41797 C 438.86224 910.49928 439.2021 906.95647 439.62109 903.54492 C 440.04005 900.13337 440.62354 894.31698 440.91797 890.62109 C 442.15096 875.15062 443.05624 865.05857 443.53711 861.41602 C 443.81865 859.2838 444.0498 856.3766 444.05078 854.95508 C 444.05173 853.53356 444.5329 847.95244 445.11914 842.55078 C 445.70542 837.14919 446.37946 830.75245 446.61719 828.33594 C 447.18729 822.54392 448.08028 815.3264 448.66406 811.79492 C 448.92254 810.23126 449.40203 806.97319 449.73047 804.55664 C 450.98641 795.31804 454.42415 778.40403 456.92578 769.15039 C 459.51366 759.57779 463.58693 748.06006 466.48242 742.12695 C 467.49197 740.05819 468.31836 738.15456 468.31836 737.89453 C 468.31836 737.33993 468.68784 737.06339 469.14844 737.11719 z M 488.83203 740.66211 C 489.53819 740.65336 490.55912 741.56566 491.75586 743.46289 C 493.75425 746.63112 496.75983 756.33253 498.75391 766.04883 C 499.04561 767.47031 499.63026 770.25989 500.05273 772.25 C 501.11365 777.24748 503.66795 793.31065 504.49219 800.16406 C 504.73154 802.15413 505.29997 806.8061 505.75586 810.50195 C 506.59805 817.32982 506.9383 820.57438 508.35547 835.3125 C 511.65583 869.63571 513.04985 910.17366 511.47266 925.9668 C 510.65526 934.1517 509.84518 938.69621 508.67383 941.66602 C 508.34278 942.50541 507.721 943.08789 507.1543 943.08789 C 505.79378 943.08789 505.50729 942.65044 505.49219 940.54688 C 505.48523 939.52814 505.25203 937.70926 504.97461 936.50586 C 504.4482 934.22272 503.65204 929.17084 502.91602 923.44531 C 502.67847 921.59739 502.10389 917.41007 501.63867 914.14062 C 501.17349 910.87134 500.5869 906.10359 500.33594 903.54492 C 500.08479 900.98626 499.50727 895.28749 499.05078 890.88086 C 498.0133 880.86538 497.40436 874.32901 496.74219 866.06836 C 496.45736 862.51466 495.99409 857.04909 495.71289 853.92188 C 495.21539 848.38789 494.96329 845.0015 493.35938 822.39062 C 491.65194 798.32162 491.50264 796.15701 489.98047 773.02539 C 489.70917 768.90306 489.2577 761.69288 488.97461 757.00195 C 488.69167 752.31103 488.23899 746.97168 487.96875 745.13672 C 487.53741 742.20822 487.92412 740.67341 488.83203 740.66211 z M 399.48047 815.61328 C 399.97818 815.59695 400.3687 816.28533 400.3125 817.48047 C 400.20467 819.77872 399.71377 843.90692 399.34375 865.03516 C 398.71514 900.94373 398.06568 922.68029 397.3125 933.00781 C 395.96083 951.54239 395.02146 961.21914 393.95117 967.64062 C 393.66691 969.3464 393.07511 972.95149 392.63672 975.65234 C 392.19829 978.35319 391.61783 981.60934 391.3457 982.88867 C 391.07346 984.168 390.48929 986.95954 390.04883 989.0918 C 389.25724 992.92314 387.71543 998.33387 385.40625 1005.3809 C 383.80751 1010.2594 383.4297 1011.1601 380.10742 1018.0156 C 377.67723 1023.0303 376.63793 1024.5428 373.32227 1027.9004 C 369.34968 1031.9233 364.68812 1035.2524 359.07812 1038.0723 C 354.68647 1040.2797 347.17212 1042.8496 345.10938 1042.8496 C 342.54397 1042.8496 342.09048 1041.6231 342.44727 1035.6465 C 342.8039 1029.6742 344.35556 1023.4465 349.01953 1009.252 C 352.34283 999.13724 359.18997 977.36258 360.39844 973.06836 C 360.67842 972.07336 361.97595 967.53706 363.28125 962.98828 C 366.21242 952.77358 366.38863 951.875 365.44727 951.875 C 364.55341 951.875 360.09917 956.49908 357.97852 959.62891 C 354.48695 964.78191 349.36647 975.71855 345.38281 986.53125 C 344.50676 988.90918 343.48271 991.56418 343.10938 992.42969 C 342.73577 993.2952 341.84345 995.63106 341.125 997.62109 C 338.96171 1003.6135 336.00717 1011.4794 335.30078 1013.1289 C 334.93553 1013.9817 333.93417 1016.54 333.07422 1018.8145 C 331.04677 1024.1765 327.06754 1032.9652 326.33594 1033.6973 C 326.02201 1034.0116 325.76367 1034.6408 325.76367 1035.0957 C 325.76367 1035.5506 325.56 1036.1438 325.31055 1036.4141 C 325.06114 1036.6841 324.09974 1038.302 323.17383 1040.0078 C 318.79642 1048.0718 312.4811 1054.9168 306.97656 1057.5664 C 303.07276 1059.4456 300.60058 1059.8743 300.18555 1058.7441 C 299.53346 1056.9683 298.39748 1045.5636 298.39648 1040.7832 C 298.39459 1030.4934 301.11142 1012.2216 304.31445 1000.9805 C 304.67895 999.70093 305.23393 997.72504 305.54688 996.58789 C 308.45193 986.03636 314.69773 968.85244 319.82617 957.30273 C 320.58359 955.59696 321.56277 953.38765 322.00195 952.39258 C 325.63329 944.16523 335.6906 923.71697 339.29102 917.24219 C 340.00244 915.96286 341.70114 912.82234 343.06445 910.26367 C 346.23102 904.32078 358.04075 883.43675 359.58008 881.05859 C 360.22419 880.06356 362.31659 876.57417 364.23047 873.30469 C 366.14438 870.03528 368.24244 866.54777 368.89062 865.55273 C 369.53893 864.55766 371.72352 860.95062 373.74609 857.53906 C 375.76863 854.12751 379.15611 848.54632 381.27344 845.13477 C 383.39077 841.72318 386.37248 836.83796 387.90039 834.2793 C 389.42834 831.72059 392.35471 826.83542 394.40234 823.42383 C 396.44994 820.01224 398.3128 816.87179 398.54297 816.44531 C 398.84518 815.88506 399.18184 815.62328 399.48047 815.61328 z M 335.46094 893.27148 C 335.5627 893.24328 335.63614 893.24338 335.68164 893.27148 C 336.40973 893.72182 336.12675 894.98597 334.83789 897.0293 C 333.45576 899.22044 311.81836 942.73376 311.81836 943.32227 C 311.81836 943.52341 310.98136 945.35646 309.95703 947.39453 C 308.93274 949.43272 307.63402 952.26211 307.07227 953.68359 C 306.51048 955.10507 305.29736 957.89661 304.375 959.88672 C 302.46018 964.01823 301.11471 967.14431 299.05664 972.25 C 297.67386 975.68075 296.92909 976.60352 296.16211 975.83594 C 295.96633 975.64046 295.80664 972.69889 295.80664 969.29883 C 295.80664 946.19613 305.38053 922.13054 321.10352 905.70898 C 326.35537 900.2238 333.93444 893.69513 335.46094 893.27148 z M 499.41797 967.55664 C 499.84845 967.55462 500.16545 968.02558 500.42188 968.9375 C 501.32737 972.15811 501.89194 974.69365 502.66406 979.01172 C 503.12157 981.57042 503.70626 984.8266 503.96289 986.24805 C 505.43698 994.41043 506.77963 1009.8493 508.0293 1033.0293 C 508.32818 1038.5731 508.80688 1046.0166 509.09375 1049.5703 C 509.38046 1053.124 509.86655 1059.8697 510.17383 1064.5605 C 510.48107 1069.2515 510.95973 1074.9503 511.23828 1077.2246 C 512.72103 1089.3342 513.60061 1095.2989 514.24805 1097.6426 C 514.52293 1098.6375 515.23823 1101.4272 515.83789 1103.8438 C 516.43747 1106.2595 517.52021 1109.5604 518.24414 1111.1758 C 518.96803 1112.7911 519.47264 1114.3724 519.36719 1114.6895 C 519.23007 1115.1013 512.11802 1115.2971 494.52148 1115.3711 C 480.96182 1115.4298 469.63578 1115.3977 469.35156 1115.3027 C 468.56323 1115.0399 468.71566 1114.1355 470.14258 1110.6211 C 470.86235 1108.8484 472.10904 1104.7957 472.91211 1101.6152 C 474.21499 1096.4558 474.73479 1093.8406 476.58789 1083.168 C 476.85941 1081.6043 477.43151 1077.1857 477.85742 1073.3477 C 478.28334 1069.5097 478.86794 1064.2755 479.1582 1061.7168 C 479.68367 1057.0852 480.38076 1049.5642 481.24219 1039.2305 C 481.7175 1033.5289 482.97573 1021.8439 483.77344 1015.7129 C 484.19157 1012.4993 484.64874 1009.8242 486.42969 1000.2051 C 487.84111 992.5815 490.27516 984.24944 492.6543 978.88867 C 493.18918 977.68349 493.625 976.5319 493.625 976.33008 C 493.625 976.1284 494.73075 974.02888 496.08008 971.66406 C 497.66984 968.87784 498.7005 967.55964 499.41797 967.55664 z M 470.07812 976.46484 C 472.06113 976.42909 472.20421 976.53391 472.89844 978.49609 C 473.93849 981.43566 474.27149 998.42495 473.49219 1008.8477 C 472.28811 1024.9511 471.29576 1035.8354 470.13477 1045.6934 C 469.69952 1049.3892 469.11852 1054.5058 468.84375 1057.0645 C 468.56883 1059.6232 467.98037 1064.8573 467.53711 1068.6953 C 467.09385 1072.5333 466.38169 1079.1632 465.95312 1083.4277 C 465.52464 1087.6922 464.93719 1093.5066 464.64844 1096.3496 C 464.35987 1099.1926 464.01018 1104.0778 463.87109 1107.2051 C 463.73182 1110.3324 463.50842 1113.413 463.375 1114.0527 L 463.13281 1115.2168 L 445.32227 1115.2168 L 427.51367 1115.2168 L 427.52148 1114.0527 C 427.52511 1113.413 428.00329 1111.3792 428.58594 1109.5312 C 429.69855 1106.0032 429.82316 1105.4619 431.59961 1096.3496 C 433.36537 1087.2921 434.34639 1081.5549 435.79883 1071.7969 C 436.11623 1069.6646 436.71221 1065.7106 437.12305 1063.0098 C 437.53396 1060.3089 438.09355 1056.5863 438.36719 1054.7383 C 439.0983 1049.7974 440.39876 1041.4522 440.94531 1038.1973 C 441.20788 1036.6336 441.80423 1033.0285 442.26953 1030.1855 C 442.73475 1027.3427 443.32309 1024.4831 443.57812 1023.8301 C 443.83302 1023.1771 444.04297 1022.1989 444.04297 1021.6562 C 444.04297 1018.529 448.55979 1002.4973 451.43359 995.42969 C 455.90508 984.43289 463.62421 976.58125 470.07812 976.46484 z M 430.80273 999.22461 C 433.00982 999.0521 432.86388 1012.9535 430.35938 1031.2188 C 429.93059 1034.3452 429.36418 1038.7666 429.09961 1041.041 C 428.67857 1044.6602 428.04761 1049.1231 425.99805 1063.0098 C 425.72528 1064.8578 425.23841 1067.9982 424.91602 1069.9883 C 424.59358 1071.9784 424.11052 1075.4658 423.8418 1077.7402 C 423.26602 1082.6113 422.68151 1087.0168 421.58008 1094.7988 C 421.13753 1097.9261 420.56195 1102.6957 420.30078 1105.3965 C 419.67164 1111.9045 419.2075 1114.6655 418.68555 1114.9883 L 418.68359 1114.9883 C 417.8722 1115.4916 391.875 1115.5432 391.875 1115.043 C 391.875 1114.9887 392.35366 1113.6671 392.93945 1112.1074 C 394.06114 1109.121 397.15472 1099.8698 399.07227 1093.7656 C 399.6974 1091.7755 400.79436 1088.2861 401.51172 1086.0117 C 402.22904 1083.7373 403.00376 1081.1791 403.23242 1080.3262 C 403.46123 1079.4733 404.85495 1074.8214 406.32812 1069.9883 C 407.80135 1065.1552 409.1329 1060.7345 409.28711 1060.166 C 409.82089 1058.1952 414.02514 1044.1205 415.38672 1039.748 C 416.13918 1037.3315 416.97832 1034.54 417.25195 1033.5449 C 417.89194 1031.2158 419.77812 1025.3197 420.31055 1023.9824 C 420.53694 1023.4138 421.52779 1020.5021 422.51172 1017.5117 C 425.22527 1009.2645 428.99281 1000.56 430.33008 999.44922 C 430.49812 999.30971 430.6556 999.23611 430.80273 999.22461 z M 401.26172 1015.3164 C 401.48271 1015.2879 401.65974 1015.3959 401.80664 1015.627 C 402.3682 1016.5103 402.28699 1023.2698 401.6543 1028.3496 C 400.80965 1035.1309 399.65838 1043.3159 399.10547 1046.4688 C 398.02464 1052.6311 397.00685 1058.2202 396.51562 1060.6836 C 396.2322 1062.1051 395.561 1065.5945 395.02344 1068.4375 C 394.48588 1071.2805 392.84275 1079.5375 391.37305 1086.7871 C 388.77216 1099.6167 388.4794 1101.175 387.24414 1108.7559 C 386.91989 1110.7459 386.41149 1113.0037 386.11328 1113.7734 L 385.57031 1115.1719 L 376.27539 1115.3242 C 368.36628 1115.4529 366.91689 1115.3566 366.55859 1114.6855 C 366.32689 1114.2517 366.32527 1113.5539 366.55469 1113.1348 C 366.78407 1112.7157 367.32876 1110.9774 367.76367 1109.2715 C 368.57041 1106.1073 372.02044 1092.9529 372.7793 1090.1465 C 373.00992 1089.2936 373.81341 1086.2707 374.56641 1083.4277 C 375.31936 1080.5848 376.13829 1077.56 376.38672 1076.707 C 376.63515 1075.8541 377.06052 1074.3428 377.33008 1073.3477 C 383.92713 1048.9953 390.97124 1030.4465 397.74805 1019.5898 C 399.54345 1016.7137 400.59875 1015.4014 401.26172 1015.3164 z M 369.46094 1056.7988 C 370.81479 1056.7723 371.72516 1056.8941 371.91602 1057.2031 C 372.30795 1057.8377 370.93084 1064.099 367.85352 1075.6738 C 365.09352 1086.0552 361.58347 1100.4823 360.92969 1104.1348 C 360.62105 1105.8575 360.36533 1108.7649 360.36133 1110.5957 C 360.35698 1112.4266 360.13276 1114.2727 359.86328 1114.6992 C 359.43491 1115.3774 353.97409 1115.483 316.28906 1115.543 C 292.59252 1115.5808 272.95174 1115.4545 272.64258 1115.2637 C 272.2853 1115.0428 272.82546 1113.8874 274.12305 1112.0938 C 277.79709 1107.0129 280.62433 1102.6683 285.21094 1095.0566 C 292.5436 1082.8878 297.47443 1077.4781 304.33008 1074.0781 C 309.33606 1071.5958 310.75427 1071.5561 311.90234 1073.8652 C 313.42625 1076.9305 313.13596 1080.443 310.44531 1091.4395 C 309.99317 1093.2873 309.51232 1096.9484 309.37891 1099.5762 C 309.14741 1104.1312 309.20492 1104.4613 310.59375 1106.6582 C 311.87955 1108.6923 314.13942 1110.6076 314.54492 1110.0059 C 314.62505 1109.8871 315.47659 1107.813 316.4375 1105.3965 C 319.68604 1097.227 325.33232 1085.1617 327.43555 1081.8965 C 330.52864 1077.0947 331.9046 1075.2283 334.5 1072.3066 C 339.41985 1066.7682 345.74181 1062.482 352.70117 1059.9668 C 357.34169 1058.2897 365.39939 1056.8788 369.46094 1056.7988 z "
       transform="scale(0.26458333)"
       id="rect1094" />
  </g>
  <g
     inkscape:groupmode="layer"
     id="layer2"
     inkscape:label="Statue"
     style="display:none"
     sodipodi:insensitive="true" />
</svg>
